<svg xmlns="http://www.w3.org/2000/svg"
  xmlns:xlink="http://www.w3.org/1999/xlink" width="441.722" height="500.785" viewBox="0 0 441.722 500.785">
  <defs>
    <filter id="Leg-Front" x="94.905" y="243.172" width="206.658" height="144.263" filterUnits="userSpaceOnUse">
      <feOffset dy="3" input="SourceAlpha"/>
      <feGaussianBlur stdDeviation="0.5" result="blur"/>
      <feFlood flood-opacity="0.161"/>
      <feComposite operator="in" in2="blur"/>
      <feComposite in="SourceGraphic"/>
    </filter>
  </defs>
  <g id="Grupo_7" data-name="Grupo 7" transform="translate(-1461.444 -488.793)">
    <g id="Symbols" transform="translate(1618.405 779.062)">
      <g id="Objects_Seat_Cube" data-name="Objects/Seat/Cube">
        <g id="Seat">
          <path id="Seat-Stuff" d="M46.9,0H178.051l17.186,210.516H0Z" fill="#707071" fill-rule="evenodd"/>
          <path id="Seat-Stuff-2" data-name="Seat-Stuff" d="M46.9,0H87.233l24.143,210.516H0Z" fill="rgba(0,0,0,0.1)" fill-rule="evenodd"/>
        </g>
      </g>
    </g>
    <g id="Symbols-2" data-name="Symbols" transform="matrix(0.995, 0.105, -0.105, 0.995, 1487.478, 723.246)">
      <g id="Bottom_Sitting_Sweat-Pants" data-name="Bottom/Sitting/Sweat-Pants" transform="translate(0 0)">
        <path id="Skin" d="M16.074,187.142c16.916-40.669,29.149-76.082,34.06-94.766,8.408-31.991,14.8-60.142,16.421-70.655C70.41-3.347,36.9-4.807,32.47,7.652,25.766,26.509,14.063,88.465,0,182.048ZM212.289,59.512c-15.52-6.664-69.872-27.519-96.086-33.418-7.533-1.7-14.834-3.27-21.7-4.694C74.1,17.169,63.533,57.151,83.183,60.223,132.12,67.874,201.5,75.774,207.434,76.661,215.756,77.9,222.044,63.7,212.289,59.512Z" transform="translate(50.193 46.13)" fill="#e6cfba" fill-rule="evenodd"/>
        <path id="Leg-Back" d="M85.783,56.527l87.756-46.422V0H163.1Q35.753,33.721,32.951,43.221q-.03.1-.055.2c-.043.058.1-.264.055-.2C16.126,67.267,3.307,181.488,0,190.277H32.951c12.333-47.524,53.642-72.081,52.594-129A19.367,19.367,0,0,0,85.783,56.527Z" transform="translate(54.86 0)" fill="#d2dacc" fill-rule="evenodd"/>
        <g transform="matrix(0.99, -0.1, 0.1, 0.99, -50.4, -230.45)" filter="url(#Leg-Front)">
          <path id="Leg-Front-2" data-name="Leg-Front" d="M125.746,84.1c7.681-1.67,14.755-3.161,20.808-4.314C185.65,72.334,197.051,49.6,190.31,0H118.275C106.508,3.672,45.355,31.529,13.626,46.345c-21,9.806-14.38,45.158-2.488,54.357a1.27,1.27,0,0,0,.66,1.119c63.971,28.8,114.579,13.689,131.484,18.517l7.82-26.795Z" transform="matrix(0.99, 0.1, -0.1, 0.99, 108.98, 243.17)" fill="#d2dacc" fill-rule="evenodd"/>
        </g>
        <g id="Accessories_Shoe_Flat-Sneaker" data-name="Accessories/Shoe/Flat-Sneaker" transform="matrix(-0.438, 0.899, -0.899, -0.438, 277.937, 109.202)">
          <path id="shoe" d="M2.074,22.088Q-.1,16.151,0,13.166A65.744,65.744,0,0,1,1.631,2.531L81.283,0q2.779,9.656-3.937,10.647T66.186,12.4L28.64,29.265a1.371,1.371,0,0,1-1.842-.62l-.015-.034-2.2-5.41q-6.1-2.549-9.972-2.426-3.146.1-8.769,2.691h0a2.748,2.748,0,0,1-3.7-1.2Q2.106,22.177,2.074,22.088Z" transform="translate(0 0)" fill="#e4e4e4" fill-rule="evenodd"/>
        </g>
        <g id="Accessories_Shoe_Flat-Sneaker-2" data-name="Accessories/Shoe/Flat-Sneaker" transform="translate(0 219.425)">
          <path id="shoe-2" data-name="shoe" d="M74.358,8.7q2.216,6.424,2.216,9.614a77.935,77.935,0,0,1-1.19,11.321H.92q-2.9-10.423,3.351-11.255t10.39-1.5L49.271.125a1.281,1.281,0,0,1,1.743.726l.015.037L53.254,6.75q5.789,2.934,9.409,2.934,2.941,0,8.122-2.58h0a2.558,2.558,0,0,1,3.5,1.412Q74.325,8.609,74.358,8.7Z" transform="translate(0)" fill="#e4e4e4" fill-rule="evenodd"/>
        </g>
      </g>
    </g>
    <g id="Symbols-3" data-name="Symbols" transform="matrix(0.995, 0.105, -0.105, 0.995, 1698.925, 488.793)">
      <g id="Head_Front_Long" data-name="Head/Front/Long">
        <path id="Hair-Back" d="M8.128,26.23C2.845,44.446-4.038,85.392,2.986,91.815H47.427q.007-.111.013-.221C63.912,89.889,76.723,76.819,76.723,60.95V30.833C76.723,13.8,61.972,0,43.776,0H40.711C24.186,0,10.5,11.385,8.128,26.23Z" fill="#523a0c" fill-rule="evenodd"/>
        <g id="Head" transform="translate(7.763 5.736)">
          <path id="Caminho_14" data-name="Caminho 14" d="M51.7,49.463C58.763,41.706,63.542,32.2,62.743,21.548,60.442-9.142,14.79-2.391,5.91,13.1s-7.825,54.782,3.652,57.55c4.577,1.1,14.327-1.6,24.251-7.2L27.584,104.69H64.363Z" fill="#e6cfba" fill-rule="evenodd"/>
        </g>
        <path id="Hair-Front" d="M34.631,48.58c-1.695,17.034-1.016,36.487,4.034,41.1H83.107c2.476-40.261-21.454-24.67-21.454-62.576-1.492-1.364-2.9-2.714-4.3-3.879l.049-1.115Q45.862,0,28.116,0C10.37,0,4.769,7.727,0,14.288,3.566,25.74,17.406,27.438,29.7,34.576a8.755,8.755,0,0,1,5.311-1.763A8.172,8.172,0,0,1,43.443,40.7a8.172,8.172,0,0,1-8.428,7.888Q34.822,48.588,34.631,48.58Z" transform="translate(14.891 1.434)" fill="#523a0c" fill-rule="evenodd"/>
      </g>
    </g>
    <g id="Symbols-4" data-name="Symbols" transform="matrix(0.995, 0.105, -0.105, 0.995, 1565.491, 569.941)">
      <g id="Body_Jacket-2" data-name="Body/Jacket-2">
        <path id="Skin-2" data-name="Skin" d="M78.8,43.908,29.285,21.087Q16.275,7.481,4.158.4C1.743-.4-2.383-.646,2.019,6.1S10.763,20.158,9,22.523s-6.855-.245-8.868,3.6q-2.013,3.846,25.769,9.2L62.987,65.165Zm200.172,6.286-28,5.831q42.239,82.616,45.3,87.573c4.6,7.436.308,21.063-1.277,28.239,9.941,2.429,6.02-13.274,18.6-10,11.482,2.993,21.218,10.673,31.924.315,1.316-1.273,2.28-5.254-2.208-7.3-11.181-5.086-27.7-14.61-30.379-18.307Q307.454,128.99,278.969,50.194Z" transform="translate(0 67.403)" fill="#e6cfba" fill-rule="evenodd"/>
        <path id="Coat-Back" d="M0,142.074l11.193,3.114C38.26,121.255,53.86,59.432,71.1,52.576c16.3-6.482,37.774,3.049,63.189,15.605L144.06,49.34C122.609,19.167,73.753-9.014,51.924,2.724,17.022,21.49,2.636,98.165,0,142.074Z" transform="translate(181.421 149.181) rotate(175)" fill="#f5afa2" fill-rule="evenodd"/>
        <path id="Shirt" d="M102.1,163.489H1.036c-4.618,0,7.666-10.746,8.333-14.4,7.7-42.164,26.367-84.108,26.367-144.127L64.887,0C89,42.1,97.338,93.941,102.1,163.489Z" transform="translate(122.452 0)" fill="#fbe6ce" fill-rule="evenodd"/>
        <path id="Coat-Front" d="M84.052,120.8q30.9,60.522,51.953,87.146l21.184-4.5Q136.72,65.62,38.641,0H27.1Q-12.157,145.283,5.454,193.605H96.428c-1.439-23.572-6.054-48.5-12.375-72.805Z" transform="translate(156.408 0)" fill="#f5afa2" fill-rule="evenodd"/>
      </g>
    </g>
  </g>
</svg>