<svg xmlns="http://www.w3.org/2000/svg" xmlns:xlink="http://www.w3.org/1999/xlink" width="513.303" height="553.851" viewBox="0 0 513.303 553.851">
  <defs>
    <filter id="Leg-Front-2" x="186.443" y="307.798" width="198.293" height="125.651" filterUnits="userSpaceOnUse">
      <feOffset dy="3" input="SourceAlpha"/>
      <feGaussianBlur stdDeviation="0.5" result="blur"/>
      <feFlood flood-opacity="0.161"/>
      <feComposite operator="in" in2="blur"/>
      <feComposite in="SourceGraphic"/>
    </filter>
  </defs>
  <g id="Grupo_45" data-name="Grupo 45" transform="translate(-183.886 -422.696)">
    <g id="Grupo_7" data-name="Grupo 7">
      <g id="Symbols">
        <g id="Objects_Seat_Cube" data-name="Objects Seat Cube">
          <g id="Seat">
            <path id="Seat-Stuff" d="M475.895,766.031H607.046l17.186,210.516H428.995Z" fill="#707071" fill-rule="evenodd"/>
            <path id="Seat-Stuff-2" d="M475.895,766.031h40.333l24.143,210.516H428.995Z" fill="#656566" fill-rule="evenodd"/>
          </g>
        </g>
      </g>
      <g id="Symbols-2">
        <g id="Bottom_Sitting_Sweat-Pants" data-name="Bottom Sitting Sweat-Pants">
          <path id="Skin" d="M339.51,949.279c21.1-38.69,36.992-72.641,43.84-90.716,11.725-30.949,21.041-58.288,23.758-68.578,6.468-24.538-26.721-29.509-32.437-17.577-8.651,18.058-26.8,78.476-50.62,170.114Zm208.635-106.39c-14.743-8.26-66.633-34.718-92.1-43.34-7.316-2.482-14.416-4.811-21.1-6.949-19.857-6.352-34.569,32.321-15.34,37.441,47.889,12.751,116.093,27.9,121.9,29.4C549.664,861.549,557.412,848.081,548.145,842.889Z" fill="#e6cfba" fill-rule="evenodd"/>
          <path id="Leg-Back" d="M432.072,781.227l92.192-36.976,1.061-10.054-10.387-1.1Q384.687,753.282,380.9,762.44c-.027.064-.052.129-.076.193-.049.053.127-.252.076-.193C361.636,784.6,336.888,896.9,332.675,905.3l32.786,3.46c17.261-45.992,60.942-66.089,65.876-122.833A19.392,19.392,0,0,0,432.072,781.227Z" fill="#d2dacc" fill-rule="evenodd"/>
          <g id="Grupo_12" data-name="Grupo 12">
            <g transform="matrix(1, 0, 0, 1, 183.89, 422.7)" filter="url(#Leg-Front-2)">
              <path id="Leg-Front-2-2" data-name="Leg-Front-2" d="M494.666,814.122c7.74-.847,14.864-1.58,20.947-2.087,39.29-3.277,52.885-24.488,51.4-74.052l-70.965-7.489c-11.974,2.394-75.115,23.48-107.913,34.777-21.708,7.477-18.861,42.993-8.1,53.291a1.255,1.255,0,0,0,.534,1.171c60.026,35.023,111.454,25.4,127.606,31.912l10.489-25.585Z" transform="translate(-183.89 -422.7)" fill="#d2dacc" fill-rule="evenodd"/>
            </g>
          </g>
          <g id="Accessories_Shoe_Flat-Sneaker" data-name="Accessories Shoe Flat-Sneaker">
            <path id="shoe" d="M543.307,838.1q6.191,1.3,8.671,2.971a65.82,65.82,0,0,1,8.159,7.022l-40.085,68.928q-9.666-2.762-6.946-8.986t4.429-10.4l5.6-40.8a1.372,1.372,0,0,1,1.5-1.235h.007l.037.005,5.757,1q5.4-3.825,7.345-7.175,1.584-2.723,2.366-8.868h0a2.751,2.751,0,0,1,2.975-2.5h.005C543.183,838.077,543.246,838.09,543.307,838.1Z" fill="#dddddc" fill-rule="evenodd"/>
          </g>
          <g id="Accessories_Shoe_Flat-Sneaker-2" data-name="Accessories Shoe Flat-Sneaker-2">
            <path id="shoe-2" d="M348.1,945.007q1.53,6.624,1.195,9.8a77.983,77.983,0,0,1-2.372,11.14l-74.092-7.819q-1.791-10.676,4.516-10.847t10.5-.4l36.2-13.037a1.281,1.281,0,0,1,1.627.8c.012.035.022.07.031.106l.011.038,1.6,6.067q5.452,3.527,9.054,3.907,2.927.309,8.352-1.714h0a2.558,2.558,0,0,1,3.268,1.555c.026.072.048.144.067.217S348.085,944.944,348.1,945.007Z" fill="#dddddc" fill-rule="evenodd"/>
          </g>
        </g>
      </g>
      <g id="Symbols-3">
        <g id="Head_Front_Long" data-name="Head Front Long">
          <path id="Hair-Back" d="M514.848,502.714c-7.169,17.57-18.317,57.589-12,64.717l44.219,4.667c.013-.074.025-.146.036-.219,16.569.033,30.688-11.626,32.355-27.416l3.162-29.966c1.788-16.948-11.44-32.228-29.545-34.139l-3.05-.321C533.58,478.3,518.767,488.192,514.848,502.714Z" fill="#412c0f" fill-rule="evenodd"/>
          <g id="Head">
            <path id="Caminho_14" data-name="Caminho 14" d="M562.885,536.928c7.842-6.976,13.595-15.933,13.919-26.615.933-30.779-45.2-28.855-55.662-14.374s-13.538,53.687-2.409,57.646c4.438,1.575,14.423-.088,24.886-4.618l-10.529,40.38,36.6,3.862Z" fill="#e6cfba" fill-rule="evenodd"/>
          </g>
          <path id="Hair-Front" d="M553.538,530.726c-3.475,16.77-4.842,36.2-.3,41.318l44.22,4.666c6.691-39.8-18.756-26.8-14.776-64.516-1.342-1.514-2.6-3-3.871-4.311l.165-1.1q-9.16-23.211-26.818-25.075c-17.657-1.863-24.041,5.237-29.475,11.265,2.345,11.769,15.938,14.912,27.421,23.3a8.759,8.759,0,0,1,5.47-1.2,7.909,7.909,0,1,1-1.653,15.7Q553.727,530.753,553.538,530.726Z" fill="#412c0f" fill-rule="evenodd"/>
        </g>
      </g>
      <g id="Symbols-4">
        <g id="Body_Jacket-2" data-name="Body Jacket-2">
          <path id="Skin-2" d="M442.8,675.938l-46.871-27.906q-11.517-14.9-22.829-23.222c-2.319-1.049-6.4-1.727-2.727,5.447s7.224,14.906,5.222,17.074-6.795-.963-9.2,2.651q-2.408,3.615,24.674,11.86l33.767,33.587ZM641.31,703.211l-28.472,2.862q33.352,86.637,35.878,91.891c3.8,7.882-1.905,20.99-4.235,27.964,9.636,3.461,7.383-12.575,19.557-8,11.11,4.184,19.991,12.848,31.731,3.666,1.443-1.129,2.82-4.989-1.43-7.5-10.592-6.234-26.028-17.445-28.3-21.405q-4.657-8.092-24.727-89.485Z" fill="#e6cfba" fill-rule="evenodd"/>
          <path id="Coat-Back" d="M543.471,582.268l-11.141-3.315c-27.505,23.458-44.216,85.024-61.585,91.575-16.422,6.193-37.733-3.726-62.933-16.741L397.7,672.46c20.92,30.568,69.29,59.633,91.337,48.281C524.287,702.592,540.049,626.146,543.471,582.268Z" fill="#f5afa2" fill-rule="evenodd"/>
          <path id="Shirt" d="M582.344,743.159,481.785,732.548c-4.6-.485,8.756-9.888,9.8-13.453,12.089-41.145,35.067-80.919,41.369-140.638l29.526-1.877C582.055,621,584.908,673.459,582.344,743.159Z" fill="#fbe6ce" fill-rule="evenodd"/>
          <path id="Coat-Front" d="M602.655,702.354q24.39,63.464,42.542,92.165l21.551-2.253Q660.853,652.98,570.155,577.39l-11.484-1.212Q504.356,716.613,516.8,766.542l90.519,9.553c1.043-23.606-.931-48.894-4.668-73.741Z" fill="#f5afa2" fill-rule="evenodd"/>
        </g>
      </g>
    </g>
    <path id="Caminho_16" data-name="Caminho 16" d="M297.97,598.108q-2.361.053-4.71.254-.725-1.116-1.494-2.2c-1.069-1.5-3.538-.128-2.62,1.384l0,.006-.215,1.3q-1.428.2-2.848.451c-1.839.325-1.1,3.086.7,2.859a1.665,1.665,0,0,0,.113.131c.4.422.83.822,1.264,1.211q-.492,2.963-.983,5.926a1.49,1.49,0,0,0,2.468,1.437,13.761,13.761,0,0,0,3.072-3.975q1.617,1.251,3.208,2.534a1.484,1.484,0,0,0,2.319-1.789q-.992-2.292-2.158-4.489a13.561,13.561,0,0,1,2.632-2.285A1.489,1.489,0,0,0,297.97,598.108Z" fill="#fbe6ce" fill-rule="evenodd"/>
    <path id="Caminho_17" data-name="Caminho 17" d="M371.758,506.723q-2.361.054-4.709.254c-.484-.743-.979-1.48-1.5-2.2-1.068-1.5-3.537-.128-2.619,1.384l0,.006-.216,1.3q-1.427.2-2.847.451c-1.84.325-1.1,3.087.7,2.86a1.661,1.661,0,0,0,.113.13c.4.422.83.822,1.264,1.211l-.984,5.926a1.491,1.491,0,0,0,2.469,1.437,13.757,13.757,0,0,0,3.072-3.974q1.615,1.251,3.207,2.534a1.485,1.485,0,0,0,2.32-1.79q-.992-2.291-2.158-4.488a13.56,13.56,0,0,1,2.632-2.285A1.49,1.49,0,0,0,371.758,506.723Z" fill="#fbe6ce" fill-rule="evenodd"/>
    <path id="Caminho_18" data-name="Caminho 18" d="M248.784,554.667q-2.361.053-4.709.254c-.484-.744-.979-1.48-1.495-2.2-1.068-1.5-3.537-.129-2.619,1.383l0,.007-.216,1.3q-1.426.2-2.847.451c-1.84.325-1.1,3.086.7,2.859.035.044.073.088.114.131.405.422.83.822,1.263,1.211q-.49,2.962-.983,5.926a1.491,1.491,0,0,0,2.469,1.437,13.76,13.76,0,0,0,3.072-3.975q1.615,1.251,3.207,2.534a1.484,1.484,0,0,0,2.32-1.789q-.991-2.292-2.158-4.489a13.56,13.56,0,0,1,2.632-2.285A1.489,1.489,0,0,0,248.784,554.667Z" fill="#fbe6ce" fill-rule="evenodd"/>
    <g id="Grupo_13" data-name="Grupo 13">
      <path id="Caminho_19" data-name="Caminho 19" d="M267.2,575.75l.626.147-1.048-1.048.148.627a1.671,1.671,0,0,0,.689.9,1.111,1.111,0,0,0,.558.178,1.128,1.128,0,0,0,.6-.027l.358-.151a1.5,1.5,0,0,0,.538-.538l.152-.358a1.522,1.522,0,0,0,0-.8l-.148-.626A1.5,1.5,0,0,0,268.62,573l-.627-.147a1.544,1.544,0,0,0-1.845,1.047l-.053.4a1.49,1.49,0,0,0,.2.757l.235.3a1.506,1.506,0,0,0,.662.386Z" fill="#cad2c1"/>
    </g>
    <g id="Grupo_14" data-name="Grupo 14">
      <path id="Caminho_20" data-name="Caminho 20" d="M329.487,599.013a1.5,1.5,0,0,0,0-3,1.5,1.5,0,0,0,0,3Z" fill="#cad2c1"/>
    </g>
    <g id="Grupo_15" data-name="Grupo 15">
      <path id="Caminho_21" data-name="Caminho 21" d="M385.237,548.773v.479a1.664,1.664,0,0,0,.439,1.06,1.115,1.115,0,0,0,.483.31,1.135,1.135,0,0,0,.578.13l.4-.054a1.49,1.49,0,0,0,.662-.386l.235-.3a1.494,1.494,0,0,0,.2-.757v-.479a1.137,1.137,0,0,0-.13-.578,1.348,1.348,0,0,0-.792-.793,1.129,1.129,0,0,0-.578-.129l-.4.053a1.506,1.506,0,0,0-.662.386l-.235.3a1.49,1.49,0,0,0-.2.757v.479a1.664,1.664,0,0,0,.439,1.06,1.115,1.115,0,0,0,.483.31,1.135,1.135,0,0,0,.578.13l.4-.054a1.49,1.49,0,0,0,.662-.386l.235-.3a1.494,1.494,0,0,0,.2-.757v-.479a1.137,1.137,0,0,0-.13-.578,1.348,1.348,0,0,0-.792-.793,1.129,1.129,0,0,0-.578-.129l-.4.053a1.506,1.506,0,0,0-.662.386l-.235.3a1.49,1.49,0,0,0-.2.757Z" fill="#cad2c1"/>
    </g>
    <g id="Grupo_16" data-name="Grupo 16">
      <path id="Caminho_22" data-name="Caminho 22" d="M339.591,473.729v.773a1.147,1.147,0,0,0,.129.578,1.541,1.541,0,0,0,1.371.922l.4-.053a1.505,1.505,0,0,0,.662-.386l.235-.3a1.5,1.5,0,0,0,.2-.757v-.773a1.541,1.541,0,0,0-1.5-1.5l-.4.053a1.5,1.5,0,0,0-.662.386l-.235.3a1.491,1.491,0,0,0-.2.757Z" fill="#cad2c1"/>
    </g>
    <g id="Grupo_17" data-name="Grupo 17">
      <path id="Caminho_23" data-name="Caminho 23" d="M279.2,450.472h.479a1.541,1.541,0,0,0,1.5-1.5l-.053-.4a1.505,1.505,0,0,0-.386-.662l-.3-.234a1.491,1.491,0,0,0-.757-.205H279.2a1.45,1.45,0,0,0-1.371.922,1.146,1.146,0,0,0-.129.578l.054.4a1.5,1.5,0,0,0,.386.662l.3.234a1.493,1.493,0,0,0,.757.2h.479a1.541,1.541,0,0,0,1.5-1.5l-.053-.4a1.505,1.505,0,0,0-.386-.662l-.3-.234a1.491,1.491,0,0,0-.757-.205H279.2a1.45,1.45,0,0,0-1.371.922,1.146,1.146,0,0,0-.129.578l.054.4a1.5,1.5,0,0,0,.386.662l.3.234a1.493,1.493,0,0,0,.757.2Z" fill="#cad2c1"/>
    </g>
    <path id="Caminho_24" data-name="Caminho 24" d="M274.131,501.133q-2.361.053-4.709.254c-.484-.744-.979-1.48-1.495-2.2-1.069-1.5-3.537-.129-2.619,1.383l0,.007-.216,1.3q-1.426.2-2.848.451c-1.839.325-1.1,3.086.7,2.859.035.044.072.088.113.131.406.422.831.822,1.264,1.211q-.49,2.963-.983,5.926a1.491,1.491,0,0,0,2.469,1.437,13.778,13.778,0,0,0,3.072-3.975q1.615,1.251,3.207,2.534a1.484,1.484,0,0,0,2.32-1.789q-.992-2.292-2.159-4.489a13.6,13.6,0,0,1,2.633-2.285A1.489,1.489,0,0,0,274.131,501.133Z" fill="#fbe6ce" fill-rule="evenodd"/>
    <path id="Caminho_25" data-name="Caminho 25" d="M322.638,554.667q-2.361.053-4.709.254c-.484-.744-.979-1.48-1.495-2.2-1.068-1.5-3.537-.129-2.619,1.383l0,.007-.216,1.3q-1.426.2-2.847.451c-1.84.325-1.1,3.086.7,2.859a1.665,1.665,0,0,0,.113.131c.4.422.83.822,1.264,1.211q-.492,2.962-.983,5.926a1.49,1.49,0,0,0,2.468,1.437,13.76,13.76,0,0,0,3.072-3.975q1.617,1.251,3.207,2.534a1.484,1.484,0,0,0,2.32-1.789q-.992-2.292-2.158-4.489a13.559,13.559,0,0,1,2.632-2.285A1.489,1.489,0,0,0,322.638,554.667Z" fill="#fbe6ce" fill-rule="evenodd"/>
    <path id="Caminho_26" data-name="Caminho 26" d="M311.636,474.554q-2.362.053-4.71.254c-.483-.744-.979-1.48-1.495-2.205-1.068-1.5-3.537-.128-2.619,1.384l0,.007-.216,1.3q-1.426.2-2.847.451c-1.839.325-1.1,3.086.7,2.859a1.5,1.5,0,0,0,.113.13c.4.423.83.822,1.264,1.212q-.492,2.963-.983,5.926a1.49,1.49,0,0,0,2.468,1.437,13.761,13.761,0,0,0,3.072-3.975q1.617,1.251,3.207,2.534a1.485,1.485,0,0,0,2.32-1.79q-.992-2.291-2.158-4.488a13.561,13.561,0,0,1,2.632-2.285A1.489,1.489,0,0,0,311.636,474.554Z" fill="#fbe6ce" fill-rule="evenodd"/>
    <path id="Caminho_27" data-name="Caminho 27" d="M208.691,496.773q-2.361.053-4.709.254c-.484-.744-.979-1.48-1.495-2.205-1.069-1.5-3.537-.128-2.619,1.384l0,.007-.216,1.3q-1.426.2-2.848.452c-1.839.325-1.1,3.086.7,2.859a1.7,1.7,0,0,0,.113.13c.406.423.831.822,1.264,1.212q-.492,2.963-.983,5.926a1.491,1.491,0,0,0,2.469,1.437,13.777,13.777,0,0,0,3.072-3.975q1.615,1.251,3.207,2.534a1.485,1.485,0,0,0,2.32-1.79q-.991-2.291-2.159-4.488a13.6,13.6,0,0,1,2.633-2.285A1.489,1.489,0,0,0,208.691,496.773Z" fill="#fbe6ce" fill-rule="evenodd"/>
    <g id="Grupo_18" data-name="Grupo 18">
      <path id="Caminho_28" data-name="Caminho 28" d="M233.579,510.54l.25-.154.3-.234a1.133,1.133,0,0,0,.31-.483.74.74,0,0,0,.1-.379,1.137,1.137,0,0,0-.026-.6l-.251-.655a1.672,1.672,0,0,0-.689-.9,1.111,1.111,0,0,0-.558-.178,1.137,1.137,0,0,0-.6.026l-.358.152a1.5,1.5,0,0,0-.539.538l-.151.358a1.522,1.522,0,0,0,0,.8l.251.655.689-1.694-.25.154a1.679,1.679,0,0,0-.69.9,1.148,1.148,0,0,0-.027.6,1.131,1.131,0,0,0,.178.558l.235.3a1.5,1.5,0,0,0,.662.385l.4.054a1.494,1.494,0,0,0,.757-.2Z" fill="#cad2c1"/>
    </g>
    <g id="Grupo_19" data-name="Grupo 19">
      <path id="Caminho_29" data-name="Caminho 29" d="M351.17,550.8l-.4.405a1.114,1.114,0,0,0-.31.482,1.544,1.544,0,0,0,.31,1.639l.3.234a1.5,1.5,0,0,0,.758.205l.4-.053a1.5,1.5,0,0,0,.662-.386l.4-.4a1.543,1.543,0,0,0,0-2.121l-.3-.235a1.5,1.5,0,0,0-.757-.2l-.4.053a1.511,1.511,0,0,0-.662.386Z" fill="#cad2c1"/>
    </g>
    <g id="Grupo_20" data-name="Grupo 20">
      <path id="Caminho_30" data-name="Caminho 30" d="M309.278,515.6h.4a1.541,1.541,0,0,0,1.5-1.5l-.054-.4a1.5,1.5,0,0,0-.385-.662l-.3-.235a1.491,1.491,0,0,0-.757-.205h-.4a1.139,1.139,0,0,0-.578.13,1.35,1.35,0,0,0-.792.792,1.139,1.139,0,0,0-.13.578l.054.4a1.5,1.5,0,0,0,.386.662l.3.235a1.5,1.5,0,0,0,.757.2Z" fill="#cad2c1"/>
    </g>
    <g id="Grupo_21" data-name="Grupo 21">
      <path id="Caminho_31" data-name="Caminho 31" d="M366.909,573.39a3.846,3.846,0,0,0-.21-1.022v.8a6.337,6.337,0,0,1,.865-2.252,2.606,2.606,0,0,1,1.408-1.227,1.021,1.021,0,0,1,.494.084,3.133,3.133,0,0,1,.7.708.833.833,0,0,1,.222.514,3.826,3.826,0,0,1-.074.833,1.844,1.844,0,0,1-.4.774,4.726,4.726,0,0,0-.687,1.3,4.36,4.36,0,0,1-.621.9,8.525,8.525,0,0,0-.631,1.2c-.387.768-.928,1.448-1.281,2.232-.447.992-.821,2.029-1.247,3.033l2.356-.3.162.294a1.537,1.537,0,0,0-1.845-1.047,1.513,1.513,0,0,0-1.048,1.845,2.6,2.6,0,0,0,.61,1.029,1.509,1.509,0,0,0,2.356-.3c.449-1.059.863-2.141,1.322-3.194.345-.79.918-1.477,1.3-2.257a5.662,5.662,0,0,1,.557-1.024,4.6,4.6,0,0,0,.859-1.42,1.048,1.048,0,0,0,.069-.278c-.007-.2-.035.031-.107.114a7.387,7.387,0,0,0,.538-.656,4.4,4.4,0,0,0,.631-1.441,4.807,4.807,0,0,0-1.627-5c-1.746-1.535-4.136-.988-5.652.559a7.453,7.453,0,0,0-1.714,2.927,11.965,11.965,0,0,0-.412,1.26,2.389,2.389,0,0,0,.3,1.6l-.2-.757,0,.175c.047,1.927,3.047,1.934,3,0Z" fill="#f5afa2"/>
    </g>
    <g id="Grupo_22" data-name="Grupo 22">
      <path id="Caminho_32" data-name="Caminho 32" d="M365.962,572.991a3.643,3.643,0,0,0-.807-1.439c-.241-.309-.47-.757-.737-1.128a5.9,5.9,0,0,0-2.34-1.843c-1.753-.807-4.359-.944-5.791.552-1.5,1.566-1.115,3.879-.4,5.71a9.1,9.1,0,0,0,1.868,2.873,18.206,18.206,0,0,0,2.461,2.163c.534.417,1.021.895,1.568,1.295.192.139.4.252.593.385-.17-.116.108.109.161.158a3.08,3.08,0,0,0,.769.529c.773.366.285.138.185.048.139.125.26.259.406.377a2.884,2.884,0,0,0,.667.425,1.309,1.309,0,0,1,.214.11c-.07-.05-.166-.3-.019.048l.9-2.2-.2.05c-1.868.48-1.076,3.374.8,2.893l.2-.051a1.526,1.526,0,0,0,.9-2.2,2.546,2.546,0,0,0-1.2-1.2c-.443-.238-.668-.561-1.151-.813a11,11,0,0,1-1.908-1.349c-1.588-1.358-3.692-2.542-4.421-4.626a8.573,8.573,0,0,1-.428-1.535c.026.174,0-.292,0-.354,0-.27-.01-.144.052-.341.059-.175.068-.208.025-.1.1-.146.117-.182.037-.108.048-.057.4-.315.139-.191a2.638,2.638,0,0,1,1.227-.1c.065,0,.7.082.41.024a3,3,0,0,1,.463.133,5.124,5.124,0,0,1,1.089.638c-.12-.1.19.175.212.2a6.03,6.03,0,0,1,.454.738c.172.273.388.51.57.775.212.309.066-.128.154.252.434,1.88,3.328,1.084,2.892-.8Z" fill="#f5afa2"/>
    </g>
    <g id="Grupo_23" data-name="Grupo 23">
      <path id="Caminho_33" data-name="Caminho 33" d="M359.427,572.167c1.251-.256.848.127,1.2.513.194.211-.125-.089-.026-.113.04-.01,0,.387.029.116l-.014.189-1.441.747c-.1-.022-.448-.339-.281-.143.044.051.1.11.146.156-.214-.211-.09-.131-.047-.043.106.218.1.169.007-.024.017.038.1.286.016.029-.08-.231.008-.016-.012.076.007-.033.1-.354.014-.124l.086-.2,1.287-.542c.065.012.437.269.37.205-.087-.084-.161-.231.022.06-.036-.057-.075-.11-.108-.168-.173-.3-.076-.024-.017-.009-.092-.023,0-.363-.04-.08l.013.108q0-.25-.039.146a1,1,0,0,1-.926.689c-.062,0-.5-.154-.438-.115.163.093-.294-.264-.093-.053-.052-.054-.147-.287-.081-.087a2.12,2.12,0,0,0,.132.255c-.2-.38.021.1.053.208s.067.245.1.369.054.259.081.389c.072.351.021-.171.007.06,0-.017,0,.205,0,.205l.029-.2q-.064.24.068-.1c.355-.571.757.343,1.506-.391-.072.071-.141-.172.014.019l.121.164c-.06-.109-.064-.1-.01.018l.038.095a1.262,1.262,0,0,1-.052-.182c0,.039.005.367.018.11.017-.356-.009,0-.025,0s.228-.557.02-.147c.056-.11.193-.233-.054.039.162-.178-.078.044-.107.063.217-.142-.183.04-.24.061l-.113.014c.159.005.122,0-.113-.018.1.013.221.129-.078-.036.274.152-.2-.219.021.015.177.189,0-.02-.027-.058.053.077.1.154.149.235s.088.169.129.255c-.026-.056-.091-.288-.024-.034.05.187.1.373.148.56.022.088.019.281,0-.069.007.1.02.207.022.312,0,.143-.009.283-.018.425-.019.3-.075.032.009-.02l.774-.315q.514-.608.871-.233c-.22-.035-.033-.149-.01.015-.005-.035.1.476.061.23v-.068c-.032.169-.028.164.013-.013-.161.238.2-.112-.068.084a.862.862,0,0,1-.207.141c-.084.029-.347-.034-.207.028.073.032.323.157.083.019.032.019.221.112.22.134.019-.421-.3-.108-.13-.084.026,0,.221.263.062.058s.042.075.057.1c.058.094.106.192.161.287.13.228,0,0-.016-.049.03.088.063.175.088.265s.042.175.059.264l-.015-.1c-.017-.129-.021-.128-.014,0l0,.1.024-.212c-.042.252.053-.117.107-.189a.72.72,0,0,1,.39-.263c-.273.093.34.008.063,0a.964.964,0,0,1,.478.122l.186.15c-.078-.08-.072-.066.017.042.141.069.057.1-.009-.043.007.014.157.357.065.129a.931.931,0,0,1-.037-.164c-.041.036.048.389.032.1-.006-.108.042-.348-.021.1.018-.126.159-.336-.042.052.052-.1.148-.163-.1.112.151-.167-.1.078-.124.089-.369.213.036.055-.169.059l-.093.013c.17.006.143,0-.078-.02.243.115-.013-.022-.049-.041.013.006.327.193.135.061s.1.1.108.108c.219.19-.111-.208.042.062.057.1.054.206-.007-.055.016.067.04.143.06.21-.126-.42-.048.056-.013-.176.042-.283-.189.305.063-.188-.1.186.033-.148.1-.107,0,0-.134.143-.148.159-.158.182.024.078.062-.035-.013.04-.23.115-.224.134-.029-.09.535-.078.321-.09a1.108,1.108,0,0,1,1.018.674c.027.073.089.519.063.2.005.063-.1.288-.007.065a1.159,1.159,0,0,1-.18.32c.21-.275-.222.241.018,0l-.171.08c.164-.036.128-.033-.106.011.112-.014.237.073-.113-.016-.168-.043-.2-.12-.332-.2l-.108-.146c.067.134.084.16.053.077l-.014-.042q.1.4.049-.229l.8-.279q.545-.561.94-.171c.157.109.109.149.036.016.308.561.034-.035.106.3.06.277.005-.016.005-.092s.007-.156.009-.235c0-.29,0,.108-.017.1a4.273,4.273,0,0,1,.121-.489c.056-.21-.053.045-.043.091a.633.633,0,0,1,.085-.158c.17-.251-.192.221-.059.08a1.018,1.018,0,0,1-.686.227h-.294c-.242-.12-.3-.143-.164-.07-.136-.088-.242-.221-.076-.025-.423-.5-.074-.085-.083-.088.032.053.062.108.089.163l-.076-.184c.13.086.1.642.075.184.008.138-.055.291.032-.114l-.021.074a.977.977,0,0,1,.481-.614.962.962,0,0,1,.446-.111c-.12,0-.1,0,.055.016a.723.723,0,0,1,.372.115l.2.158q.228.324.135.173c-.063-.111.116.4.04.089-.049-.2-.117-.075,0,.114a.745.745,0,0,1-.018-.271,4.222,4.222,0,0,1,.015-.477c0-.064.014-.129.018-.193.017-.322-.059.311,0,.025.032-.165.058-.33.1-.493.023-.1.056-.2.077-.3.059-.294-.158.225-.018.028.045-.064.079-.139.122-.2.023-.036.238-.324.106-.158-.149.186.1-.111.11-.118.082-.088.173-.168.256-.255.179-.189.027-.029-.029.009.093-.064.192-.117.286-.178l-.167.066c.13-.034.127-.041-.01-.021s-.141.012-.013.007c-.247-.046-.291-.044-.134.005l-.9-2.2a.885.885,0,0,1,1.113-.24.87.87,0,0,1,.4.466l-.027-.116c.022.193.027.2.014.026,0-.08,0-.16,0-.241.016-.18.011-.147-.015.1.051-.162.057-.193.016-.094s-.028.07.042-.056a.662.662,0,0,1-.475.355c-.247.058-.36-.043-.567-.107l.065.062c.039.039.077.079.114.119q.153.179-.026-.047.342.6.086-.961l.538-.538.187-.071h.8c-.154-.027-.13-.012.07.045a.771.771,0,0,1,.386.52l.017.184c.005-.17,0-.15-.011.059-.079.158-.092.189-.038.093s.034-.068-.067.083a.754.754,0,0,1-.955.123l-.44-1.061c.005.213.12-.37.01-.073-.038.1-.065.216-.1.322.083-.23.014-.081-.046.056-.156.349.531-.373.257-.251l2.257,1.295c-.005-.073,0-.146-.007-.218.019.289-.1.021.017-.021.026-.082.023-.08-.01.007a.211.211,0,0,1-.076.122c-.049.062-.31.209-.076.106l-1.156.152a1.179,1.179,0,0,1-.649-.478c0-.006-.149-.378-.087-.188.02.108.018.086-.007-.065s-.023-.173-.017-.055c.031.037-.052.335.009.041.055-.259-.046.19-.072.281-.037.131-.269.609-.065.234-.078.142-.139.292-.221.433-.039.067-.083.131-.123.2-.154.258.058-.019.053-.055.018.129-.527.393-.047.1-.133.082-.183.037.17-.058.065-.017.442-.007.194-.039l1.446,1.1q-.07-.29-.04.091a.616.616,0,0,1-.2.56l-2.507-1.459c-.01.067-.161.527-.061.3-.062.139-.139.272-.212.406a8.909,8.909,0,0,0-.5,1.048c-.11.282-.2.573-.294.862-.1.337.016-.145-.068.158-.1.145-.094.158,0,.037a1.476,1.476,0,0,1-.2.194l2.507.662.026.155-.2.757-.294.291-2.2-1.694a4.8,4.8,0,0,1-.3,1.037c.088-.2-.12.214-.117.209a4.26,4.26,0,0,1-.278.434,2.741,2.741,0,0,0-.636,2.506,1.515,1.515,0,0,0,2.2.9,3.125,3.125,0,0,0,.716-.614,1.545,1.545,0,0,0,0-2.121,1.509,1.509,0,0,0-2.121,0c-.038.047-.314.282-.109.144l2.2.9a1.365,1.365,0,0,1-.041.34c-.006,0,.239-.353.25-.368a5.578,5.578,0,0,0,.438-.669,6.675,6.675,0,0,0,.681-1.9,1.522,1.522,0,0,0-2.2-1.694,1.859,1.859,0,0,0-.907,2.185,1.518,1.518,0,0,0,2.507.662,4.988,4.988,0,0,0,1.237-2.317c.022-.065.045-.13.07-.2q-.1.236.012-.006c.1-.17.192-.348.285-.522a4.2,4.2,0,0,0,.5-1.29,1.569,1.569,0,0,0-.689-1.694,1.521,1.521,0,0,0-1.818.235,2.264,2.264,0,0,0-.536,2.267,1.575,1.575,0,0,0,1.447,1.1c.935.122,1.724-.7,2.195-1.393a5.236,5.236,0,0,0,.838-2.1,2.286,2.286,0,0,0-1.141-2.648c-1.625-.7-2.822,1.239-2.722,2.648a1.524,1.524,0,0,0,2.257,1.295,2.876,2.876,0,0,0,1.257-1.868,2.067,2.067,0,0,0-.018-1.354,2.246,2.246,0,0,0-1.458-1.147c-2.242-.661-3.792,2.346-2.279,3.949a1.885,1.885,0,0,0,3-.187,2.2,2.2,0,0,0-.615-2.653,2.467,2.467,0,0,0-2.516-.761,2.664,2.664,0,0,0-1.7,2.358,2.7,2.7,0,0,0,.977,2.595,2.15,2.15,0,0,0,3.085-.766,1.526,1.526,0,0,0-.9-2.2c-1.758-.635-3.674,1.292-4.174,2.832a5.205,5.205,0,0,0,.036,3.875,2.108,2.108,0,0,0,2.486.942,2.228,2.228,0,0,0,1.345-2.7,3.152,3.152,0,0,0-1.343-2.064,2.078,2.078,0,0,0-2.805.7c-.945,1.353-1.019,3.783.621,4.642,1.606.842,3.017-.79,2.747-2.346a2.548,2.548,0,0,0-2.4-2.171,2.585,2.585,0,0,0-2.5,1.788,2.191,2.191,0,0,0,1.294,2.78,2.67,2.67,0,0,0,2.52-.843,2.733,2.733,0,0,0,.713-2.682c-.552-1.962-3.275-3.381-4.863-1.645-1.251,1.368-.672,4.153,1.328,4.422a2.381,2.381,0,0,0,2.58-1.628,3.618,3.618,0,0,0-.4-2.673,3.561,3.561,0,0,0-2.05-1.832,2.561,2.561,0,0,0-3.153,1.166,2.793,2.793,0,0,0,.509,3.413,2.157,2.157,0,0,0,1.931.572,1.9,1.9,0,0,0,1.4-1.494,4.808,4.808,0,0,0-1.675-4.821,2.434,2.434,0,0,0-2.985.181,3.122,3.122,0,0,0-.947,2.347A2.679,2.679,0,0,0,359.789,577c1.422.562,2.506-.572,2.625-1.916a5.368,5.368,0,0,0-.251-1.827,3.551,3.551,0,0,0-1.384-2.191,2.1,2.1,0,0,0-2.872.7,2.742,2.742,0,0,0,.261,2.778,2.168,2.168,0,0,0,2.889.967,2.408,2.408,0,0,0,.84-2.737,3.026,3.026,0,0,0-1.956-2.048c-1.562-.391-2.5,1.182-2.245,2.545a2.111,2.111,0,0,0,2.528,1.795,1.5,1.5,0,1,0-.8-2.893Z" fill="#f5afa2"/>
    </g>
    <g id="Grupo_24" data-name="Grupo 24">
      <path id="Caminho_34" data-name="Caminho 34" d="M339.66,517.916a3.929,3.929,0,0,0-.21-1.022v.8a6.316,6.316,0,0,1,.864-2.252,2.609,2.609,0,0,1,1.408-1.227,1.017,1.017,0,0,1,.494.084,3.1,3.1,0,0,1,.7.709.833.833,0,0,1,.223.514,3.842,3.842,0,0,1-.075.833,1.846,1.846,0,0,1-.4.773,4.78,4.78,0,0,0-.687,1.3,4.354,4.354,0,0,1-.621.9,8.419,8.419,0,0,0-.631,1.2c-.387.768-.928,1.448-1.281,2.232-.447.992-.82,2.028-1.247,3.032l2.356-.3.162.295a1.537,1.537,0,0,0-1.845-1.048,1.513,1.513,0,0,0-1.048,1.845,2.623,2.623,0,0,0,.61,1.03,1.51,1.51,0,0,0,2.356-.3c.45-1.059.864-2.14,1.323-3.194.344-.79.917-1.477,1.3-2.257a5.789,5.789,0,0,1,.557-1.024,4.585,4.585,0,0,0,.859-1.419,1.019,1.019,0,0,0,.069-.278c-.007-.2-.034.03-.107.114a7.689,7.689,0,0,0,.538-.656,4.418,4.418,0,0,0,.631-1.442,4.807,4.807,0,0,0-1.627-5c-1.746-1.535-4.136-.987-5.651.559a7.444,7.444,0,0,0-1.715,2.927,11.965,11.965,0,0,0-.412,1.26,2.389,2.389,0,0,0,.3,1.6l-.2-.757.005.175c.046,1.927,3.047,1.934,3,0Z" fill="#f5afa2"/>
    </g>
    <g id="Grupo_25" data-name="Grupo 25">
      <path id="Caminho_35" data-name="Caminho 35" d="M338.713,517.517a3.657,3.657,0,0,0-.808-1.439c-.241-.309-.469-.757-.737-1.128a5.9,5.9,0,0,0-2.34-1.843c-1.752-.806-4.359-.944-5.79.552-1.5,1.566-1.116,3.879-.4,5.71a9.116,9.116,0,0,0,1.868,2.873,18.221,18.221,0,0,0,2.462,2.164c.533.417,1.021.9,1.568,1.294.191.14.4.252.592.386-.169-.117.108.109.161.157a3.1,3.1,0,0,0,.769.53c.773.365.285.137.186.048.138.124.259.258.4.376a2.92,2.92,0,0,0,.667.426,1.173,1.173,0,0,1,.214.11c-.07-.051-.165-.3-.019.047l.9-2.2-.2.05c-1.869.48-1.077,3.374.8,2.893l.2-.05a1.526,1.526,0,0,0,.9-2.2,2.548,2.548,0,0,0-1.2-1.2c-.444-.237-.669-.561-1.152-.813a11.043,11.043,0,0,1-1.908-1.349c-1.587-1.358-3.692-2.542-4.421-4.626a8.72,8.72,0,0,1-.428-1.535c.026.174,0-.291,0-.354,0-.27-.011-.144.051-.341.06-.174.068-.208.026-.1q.156-.219.036-.108c.048-.057.4-.315.139-.191a2.655,2.655,0,0,1,1.228-.1c.064,0,.694.082.409.024a3.008,3.008,0,0,1,.464.133,5.188,5.188,0,0,1,1.088.638c-.12-.1.19.175.212.2a5.9,5.9,0,0,1,.454.737c.172.273.389.51.57.775.212.309.066-.128.154.252.435,1.88,3.328,1.084,2.893-.8Z" fill="#f5afa2"/>
    </g>
    <g id="Grupo_26" data-name="Grupo 26">
      <path id="Caminho_36" data-name="Caminho 36" d="M332.177,516.693c1.251-.256.849.127,1.2.513.193.211-.126-.089-.026-.113.039-.01,0,.387.028.116l-.014.189-1.44.747c-.1-.022-.449-.339-.281-.143.044.052.1.11.145.156-.214-.211-.09-.131-.047-.043.106.218.1.169.007-.024.017.038.105.286.016.029-.08-.231.008-.016-.012.076.007-.033.1-.353.015-.123l.086-.205,1.286-.542c.065.012.437.269.37.205-.087-.084-.161-.231.022.06-.036-.057-.074-.11-.108-.168-.173-.3-.076-.023-.017-.008-.092-.023,0-.364-.04-.081l.013.108c0-.166-.013-.118-.039.146a1,1,0,0,1-.926.69c-.061,0-.5-.154-.437-.116.162.093-.3-.264-.094-.053-.051-.054-.147-.287-.08-.087a2.071,2.071,0,0,0,.132.256c-.2-.38.02.1.052.207s.068.246.1.369.055.259.081.389c.072.351.021-.17.007.061,0-.017,0,.2,0,.2l.028-.2q-.064.24.069-.1c.354-.57.756.343,1.505-.391-.072.071-.141-.172.014.02l.121.163q-.09-.164-.009.018l.037.095a1.405,1.405,0,0,1-.052-.182c0,.039.005.368.018.11.018-.356-.009,0-.025,0s.228-.557.021-.147c.055-.11.193-.233-.054.039.161-.178-.079.045-.108.064.217-.143-.183.039-.24.06l-.113.014q.239.008-.112-.017c.1.012.22.128-.079-.036.275.151-.2-.22.021.015.178.188,0-.02-.027-.058.053.076.1.154.149.235s.089.168.129.254c-.026-.056-.091-.288-.023-.033.049.186.1.372.147.559.023.088.019.281,0-.069.007.1.02.207.023.312,0,.143-.009.283-.019.426-.019.295-.074.031.009-.021l.775-.315q.513-.608.87-.233c-.22-.035-.032-.149-.01.016-.005-.035.1.475.062.229l0-.067c-.032.168-.027.164.013-.014-.161.238.2-.111-.068.085a.853.853,0,0,1-.206.14c-.085.03-.348-.034-.208.029.073.032.323.156.083.019a1.09,1.09,0,0,1,.22.133c.019-.421-.3-.108-.129-.084.026,0,.22.263.061.059s.043.074.058.1c.058.093.105.192.16.287.131.228,0,0-.015-.05.029.088.062.175.087.265s.042.175.059.264l-.015-.1c-.017-.129-.021-.128-.014.005l0,.1.023-.213c-.042.252.053-.117.108-.189a.713.713,0,0,1,.389-.263c-.273.093.34.008.063,0a.952.952,0,0,1,.478.121l.186.151c-.078-.081-.072-.067.017.041.141.069.057.1-.008-.043.006.015.156.357.064.129a1.027,1.027,0,0,1-.037-.164c-.04.036.048.389.032.1-.006-.109.042-.349-.021.1.018-.126.159-.336-.041.053.052-.1.147-.163-.1.111.152-.167-.1.078-.124.089-.369.214.036.055-.169.059l-.093.013c.17.007.144,0-.078-.02.243.115-.013-.022-.049-.041.013.007.327.193.136.061s.095.1.107.108c.219.19-.111-.208.043.062.056.1.054.206-.008-.054.016.067.04.142.06.21-.126-.42-.048.055-.013-.177.042-.283-.189.306.063-.188-.1.187.033-.148.1-.106,0,0-.134.143-.148.158-.159.182.023.078.062-.035-.014.04-.231.115-.225.134-.029-.089.535-.078.321-.089a1.105,1.105,0,0,1,1.018.674c.028.072.089.519.063.2.005.063-.1.289-.007.065a1.12,1.12,0,0,1-.18.32c.21-.275-.222.241.018,0l-.171.081q.246-.056-.106.01c.113-.014.237.073-.113-.016-.167-.043-.2-.119-.332-.2l-.108-.146c.067.135.085.16.053.077l-.014-.041c.066.269.083.193.05-.23l.8-.278q.545-.562.94-.172c.157.109.109.149.036.016.308.561.034-.035.106.3.06.277.005-.016.005-.092s.008-.156.009-.234c0-.291.005.107-.017.1a4,4,0,0,1,.122-.489c.055-.211-.054.045-.044.09a.728.728,0,0,1,.085-.158c.17-.25-.191.221-.059.08a1.013,1.013,0,0,1-.685.227h-.295q-.361-.18-.164-.069c-.136-.089-.242-.222-.076-.026-.423-.5-.074-.085-.082-.088.032.053.061.108.088.164l-.076-.185c.13.086.1.642.075.184.008.138-.054.291.032-.113l-.02.073a.955.955,0,0,1,.926-.725c-.12,0-.1,0,.055.016a.715.715,0,0,1,.372.116l.2.157q.228.325.135.174c-.062-.112.116.4.041.088-.049-.2-.118-.075,0,.114a.721.721,0,0,1-.019-.27,4.763,4.763,0,0,1,.015-.478c.005-.064.015-.129.018-.193.017-.322-.059.312,0,.025.032-.164.058-.329.1-.493.023-.1.057-.2.077-.3.059-.294-.157.225-.018.028.046-.063.08-.139.122-.2.023-.036.238-.324.106-.158-.149.186.1-.111.11-.117.082-.089.174-.168.256-.256.179-.189.027-.029-.028.01.092-.065.191-.118.285-.179l-.167.066c.131-.034.127-.041-.01-.021s-.14.013-.013.007c-.247-.046-.291-.044-.134.005l-.9-2.2a.887.887,0,0,1,1.114-.24.872.872,0,0,1,.4.466l-.027-.116c.023.193.027.2.014.026,0-.08,0-.16,0-.24q.023-.272-.016.1c.052-.162.057-.193.017-.094s-.028.071.042-.056a.662.662,0,0,1-.475.355c-.248.058-.36-.043-.568-.107l.066.062c.038.039.076.079.113.12q.153.177-.025-.048.341.6.085-.961l.538-.538.187-.07h.8q-.229-.042.07.044a.775.775,0,0,1,.387.52l.017.184q.008-.255-.012.059c-.078.158-.091.189-.038.093s.035-.068-.067.083a.754.754,0,0,1-.955.123l-.439-1.061c0,.213.12-.37.01-.073-.039.1-.066.216-.1.322.083-.229.015-.081-.046.056-.156.349.531-.373.257-.251l2.257,1.295c-.005-.072,0-.146-.007-.218.02.289-.1.021.017-.021.026-.082.023-.08-.009.007a.224.224,0,0,1-.077.123c-.049.061-.31.208-.076.106l-1.156.151a1.186,1.186,0,0,1-.649-.477c0-.007-.148-.379-.087-.188.02.107.018.086-.007-.065s-.023-.173-.017-.055c.031.036-.052.334.01.04.054-.259-.047.19-.073.281-.037.131-.269.609-.065.234-.077.142-.139.292-.221.433-.039.067-.083.131-.123.2-.154.258.058-.019.054-.056.017.129-.528.394-.048.1-.132.081-.182.036.17-.058.065-.018.442-.008.194-.04l1.446,1.1q-.07-.29-.04.091a.617.617,0,0,1-.2.561l-2.507-1.46c-.01.067-.161.527-.061.3-.062.139-.139.273-.212.406a9.072,9.072,0,0,0-.5,1.048c-.109.282-.2.573-.293.862-.1.337.015-.145-.069.158-.1.146-.094.158,0,.038a1.53,1.53,0,0,1-.2.193l2.507.662.027.155-.2.757-.293.291-2.2-1.694a4.753,4.753,0,0,1-.3,1.038c.088-.2-.12.213-.117.208a4.393,4.393,0,0,1-.278.435,2.738,2.738,0,0,0-.636,2.505,1.516,1.516,0,0,0,2.2.9,3.12,3.12,0,0,0,.715-.614,1.544,1.544,0,0,0,0-2.121,1.509,1.509,0,0,0-2.121,0c-.038.047-.313.283-.109.144l2.2.9a1.315,1.315,0,0,1-.041.34c-.006,0,.239-.352.251-.368a5.831,5.831,0,0,0,.438-.669,6.672,6.672,0,0,0,.68-1.9,1.522,1.522,0,0,0-2.2-1.694,1.859,1.859,0,0,0-.907,2.185,1.518,1.518,0,0,0,2.507.662,4.99,4.99,0,0,0,1.237-2.316c.022-.066.045-.131.07-.2q-.1.234.013-.006c.1-.171.191-.349.284-.523a4.181,4.181,0,0,0,.5-1.289,1.567,1.567,0,0,0-.689-1.694,1.519,1.519,0,0,0-1.818.234,2.266,2.266,0,0,0-.536,2.268,1.576,1.576,0,0,0,1.447,1.1c.935.122,1.725-.7,2.2-1.393a5.237,5.237,0,0,0,.837-2.1,2.285,2.285,0,0,0-1.141-2.648c-1.625-.7-2.822,1.239-2.722,2.648a1.525,1.525,0,0,0,2.257,1.3,2.881,2.881,0,0,0,1.257-1.868,2.063,2.063,0,0,0-.018-1.355,2.249,2.249,0,0,0-1.457-1.146c-2.243-.661-3.793,2.345-2.279,3.948a1.884,1.884,0,0,0,2.995-.186,2.2,2.2,0,0,0-.615-2.654,2.465,2.465,0,0,0-2.515-.76,2.662,2.662,0,0,0-1.7,2.357,2.7,2.7,0,0,0,.977,2.595,2.149,2.149,0,0,0,3.085-.766,1.526,1.526,0,0,0-.9-2.2c-1.757-.635-3.674,1.292-4.173,2.832a5.213,5.213,0,0,0,.035,3.876,2.107,2.107,0,0,0,2.486.941,2.227,2.227,0,0,0,1.345-2.7,3.144,3.144,0,0,0-1.343-2.065,2.078,2.078,0,0,0-2.805.7c-.944,1.353-1.019,3.783.621,4.643,1.606.841,3.018-.79,2.748-2.347a2.55,2.55,0,0,0-2.4-2.171,2.584,2.584,0,0,0-2.5,1.788,2.191,2.191,0,0,0,1.294,2.781,2.67,2.67,0,0,0,2.519-.844,2.731,2.731,0,0,0,.713-2.681c-.552-1.962-3.275-3.381-4.863-1.646-1.251,1.368-.672,4.153,1.328,4.422a2.381,2.381,0,0,0,2.58-1.627,3.612,3.612,0,0,0-.4-2.673,3.558,3.558,0,0,0-2.05-1.832,2.56,2.56,0,0,0-3.153,1.165,2.794,2.794,0,0,0,.509,3.413,2.154,2.154,0,0,0,1.931.572,1.9,1.9,0,0,0,1.406-1.494,4.81,4.81,0,0,0-1.676-4.821,2.434,2.434,0,0,0-2.985.181,3.126,3.126,0,0,0-.947,2.347,2.68,2.68,0,0,0,1.634,2.485c1.423.562,2.506-.572,2.625-1.916a5.334,5.334,0,0,0-.251-1.826,3.547,3.547,0,0,0-1.384-2.192,2.1,2.1,0,0,0-2.872.7,2.741,2.741,0,0,0,.262,2.777,2.169,2.169,0,0,0,2.889.968,2.409,2.409,0,0,0,.839-2.738,3.028,3.028,0,0,0-1.956-2.048c-1.562-.391-2.5,1.183-2.245,2.546a2.11,2.11,0,0,0,2.528,1.794,1.5,1.5,0,0,0-.8-2.893Z" fill="#f5afa2"/>
    </g>
    <g id="Grupo_27" data-name="Grupo 27">
      <path id="Caminho_37" data-name="Caminho 37" d="M281.8,545.425a3.846,3.846,0,0,0-.21-1.022v.8a6.317,6.317,0,0,1,.864-2.252,2.607,2.607,0,0,1,1.409-1.227,1.013,1.013,0,0,1,.493.083,3.118,3.118,0,0,1,.705.709.839.839,0,0,1,.223.514,3.837,3.837,0,0,1-.075.833,1.832,1.832,0,0,1-.4.774,4.736,4.736,0,0,0-.686,1.3,4.391,4.391,0,0,1-.622.9,8.632,8.632,0,0,0-.63,1.2c-.388.768-.928,1.448-1.282,2.232-.447.992-.82,2.029-1.246,3.033l2.356-.3.161.294a1.536,1.536,0,0,0-1.845-1.047,1.513,1.513,0,0,0-1.047,1.845,2.611,2.611,0,0,0,.609,1.029,1.51,1.51,0,0,0,2.356-.3c.45-1.06.864-2.141,1.323-3.194.345-.791.918-1.477,1.3-2.257a5.629,5.629,0,0,1,.557-1.024,4.6,4.6,0,0,0,.859-1.42,1.049,1.049,0,0,0,.069-.278c-.007-.2-.035.031-.107.114a7.917,7.917,0,0,0,.538-.656,4.381,4.381,0,0,0,.63-1.441,4.8,4.8,0,0,0-1.626-5c-1.747-1.535-4.136-.988-5.652.559a7.441,7.441,0,0,0-1.714,2.927,11.662,11.662,0,0,0-.413,1.26,2.4,2.4,0,0,0,.3,1.6l-.2-.757,0,.175c.047,1.927,3.047,1.934,3,0Z" fill="#f5afa2"/>
    </g>
    <g id="Grupo_28" data-name="Grupo 28">
      <path id="Caminho_38" data-name="Caminho 38" d="M280.85,545.026a3.636,3.636,0,0,0-.807-1.439c-.241-.309-.47-.758-.738-1.128a5.881,5.881,0,0,0-2.34-1.843c-1.752-.807-4.359-.944-5.79.551-1.5,1.567-1.115,3.88-.4,5.711a9.1,9.1,0,0,0,1.868,2.872,18.083,18.083,0,0,0,2.461,2.164c.534.417,1.021.9,1.568,1.295.191.139.4.252.593.385-.17-.116.108.109.16.158a3.113,3.113,0,0,0,.77.529c.772.366.285.138.185.048.139.125.26.259.406.377a2.861,2.861,0,0,0,.667.425,1.261,1.261,0,0,1,.213.11c-.07-.05-.165-.3-.019.048l.9-2.2-.2.05c-1.869.479-1.077,3.374.8,2.893l.2-.051a1.526,1.526,0,0,0,.9-2.2,2.546,2.546,0,0,0-1.2-1.2c-.444-.238-.668-.561-1.152-.813a11.036,11.036,0,0,1-1.907-1.349c-1.588-1.358-3.692-2.543-4.421-4.626a8.573,8.573,0,0,1-.428-1.535c.026.174-.005-.292,0-.354,0-.27-.01-.144.052-.341.059-.175.068-.208.025-.1q.156-.219.037-.108c.047-.057.4-.316.139-.191a2.624,2.624,0,0,1,1.227-.1c.065,0,.694.082.409.024a2.963,2.963,0,0,1,.464.133,5.171,5.171,0,0,1,1.089.638c-.12-.1.19.175.212.2a5.831,5.831,0,0,1,.453.738c.172.273.389.51.571.774.212.31.066-.127.153.252.435,1.881,3.328,1.085,2.893-.8Z" fill="#f5afa2"/>
    </g>
    <g id="Grupo_29" data-name="Grupo 29">
      <path id="Caminho_39" data-name="Caminho 39" d="M274.314,544.2c1.252-.256.849.127,1.205.513.194.211-.125-.089-.026-.113.039-.01,0,.387.029.116l-.014.189-1.441.747c-.1-.022-.448-.339-.281-.143.044.051.1.11.145.156-.213-.211-.089-.131-.046-.043.106.217.094.169.007-.024.017.038.1.286.015.028-.079-.23.008-.015-.012.076.008-.033.1-.353.015-.123l.086-.2,1.286-.542c.066.012.438.269.371.2-.088-.083-.162-.231.021.06-.035-.056-.074-.109-.107-.167-.173-.3-.077-.024-.017-.009-.092-.023,0-.363-.04-.08l.013.108c0-.167-.014-.118-.039.145a1,1,0,0,1-.927.69c-.061,0-.5-.154-.437-.115.162.093-.294-.265-.094-.053-.051-.054-.147-.287-.08-.087a2.124,2.124,0,0,0,.132.255c-.2-.38.02.1.053.208s.067.245.1.369.054.259.081.389c.072.351.021-.171.007.06,0-.017,0,.205,0,.205l.029-.2q-.066.24.068-.1c.355-.571.757.343,1.506-.391-.072.07-.141-.172.013.019l.122.164c-.061-.109-.064-.1-.01.018l.038.095a1.457,1.457,0,0,1-.053-.182c0,.039.006.367.019.11.017-.357-.009,0-.025,0s.228-.557.02-.147c.056-.11.193-.233-.054.038.161-.177-.078.045-.107.064.217-.142-.183.04-.24.061l-.114.013c.16.006.122,0-.112-.017.1.013.22.129-.078-.036.274.152-.2-.219.02.015.178.189,0-.02-.027-.058.053.077.1.154.15.235s.088.168.129.255c-.027-.057-.091-.288-.024-.034.049.187.1.373.148.56.022.088.019.281,0-.069.006.1.019.207.022.312,0,.143-.009.283-.018.425-.019.295-.075.032.008-.021l.775-.314q.513-.607.871-.233c-.22-.035-.033-.149-.011.015,0-.035.1.476.062.23v-.068c-.032.169-.028.164.013-.013-.162.238.2-.112-.068.084a.891.891,0,0,1-.207.141c-.084.029-.347-.034-.207.028.072.032.322.157.083.019.032.019.221.112.22.134.018-.421-.3-.108-.13-.084.026,0,.221.263.062.058s.042.075.057.1c.058.094.106.192.16.287.131.228,0,0-.015-.049.03.088.063.174.087.264s.043.176.06.265l-.016-.1c-.016-.13-.021-.128-.013,0l0,.1.023-.212c-.041.251.054-.117.108-.189a.72.72,0,0,1,.389-.263c-.272.093.34.007.064,0a.963.963,0,0,1,.478.122l.186.15c-.078-.08-.073-.066.017.042.14.069.057.1-.009-.043.007.014.156.357.064.129a.934.934,0,0,1-.036-.164c-.041.035.048.389.032.1-.007-.108.042-.348-.021.1.017-.126.159-.336-.042.052.052-.1.148-.163-.1.112.151-.167-.1.077-.124.089-.369.213.035.055-.17.058l-.092.014q.253.009-.079-.021c.244.116-.012-.021-.048-.04.012.006.327.193.135.061s.1.1.108.108c.219.19-.111-.209.042.062.057.1.054.205-.007-.055.015.067.039.143.059.21-.125-.42-.047.056-.013-.177.043-.282-.188.306.064-.187-.1.186.032-.149.1-.107,0,0-.134.143-.148.159-.159.182.024.078.062-.035-.014.04-.231.115-.224.134-.03-.09.534-.079.321-.09a1.108,1.108,0,0,1,1.018.674c.027.073.089.519.063.2.005.063-.1.288-.007.064a1.129,1.129,0,0,1-.181.321c.21-.275-.221.241.019,0l-.172.08q.246-.054-.106.01c.113-.013.237.074-.112-.015-.168-.043-.2-.12-.333-.2l-.108-.146c.067.134.085.16.054.077l-.014-.042q.1.405.049-.229l.8-.279q.545-.561.941-.171c.156.109.109.149.036.016.307.561.034-.036.106.3.06.277.005-.016,0-.092s.008-.157.009-.235c.005-.29.005.108-.016.1a4.03,4.03,0,0,1,.121-.489c.056-.21-.054.045-.044.091a.675.675,0,0,1,.086-.158c.17-.251-.192.221-.059.08a1.022,1.022,0,0,1-.686.227h-.294q-.363-.18-.165-.07c-.135-.088-.242-.221-.075-.025-.424-.5-.075-.085-.083-.088.032.053.061.108.088.163l-.075-.184c.13.086.1.641.075.184.007.138-.055.291.032-.114l-.021.073a.978.978,0,0,1,.481-.613.962.962,0,0,1,.445-.111c-.119,0-.1,0,.056.016a.714.714,0,0,1,.372.115l.2.157q.228.325.135.174c-.062-.111.116.4.041.089-.049-.2-.118-.075,0,.113a.738.738,0,0,1-.018-.27,4.463,4.463,0,0,1,.014-.477c.005-.064.015-.129.018-.193.017-.322-.059.311,0,.025.032-.165.058-.33.1-.493.023-.1.056-.2.076-.3.06-.294-.157.225-.017.028.045-.064.079-.139.122-.205.023-.036.238-.324.1-.159-.149.187.105-.111.11-.117.082-.089.174-.168.257-.255.179-.19.027-.029-.029.009.093-.064.191-.117.285-.178l-.166.066c.13-.034.127-.041-.01-.021s-.141.012-.014.007c-.246-.046-.291-.045-.134.005l-.9-2.2a.886.886,0,0,1,1.113-.239.871.871,0,0,1,.4.466l-.027-.116q.033.29.014.026c0-.08,0-.16,0-.241.016-.181.011-.147-.015.1.051-.161.057-.193.016-.093s-.028.07.042-.056a.664.664,0,0,1-.475.355c-.248.058-.36-.043-.567-.108-.079-.073-.057-.053.065.063l.114.119q.153.178-.026-.047.342.6.085-.961l.538-.538.187-.071h.8q-.231-.041.069.045a.767.767,0,0,1,.387.52l.017.184c.005-.17,0-.15-.011.059-.079.158-.092.188-.039.093s.035-.068-.067.083a.755.755,0,0,1-.955.123l-.439-1.061c.005.213.12-.37.01-.073-.039.105-.065.216-.1.322.082-.23.014-.081-.047.055-.156.35.532-.372.257-.25l2.257,1.3c0-.073,0-.146-.006-.219.019.29-.1.022.016-.02.026-.083.023-.08-.009.006a.215.215,0,0,1-.076.123c-.05.062-.31.209-.077.106l-1.155.152a1.179,1.179,0,0,1-.649-.478c0-.006-.149-.378-.088-.188.021.108.019.086-.006-.065s-.024-.173-.018-.055c.031.036-.051.335.01.041.054-.259-.046.19-.072.281-.037.131-.27.609-.066.234-.077.142-.138.292-.22.432-.039.068-.083.132-.123.2-.155.258.058-.019.053-.055.017.129-.527.393-.048.1-.132.082-.182.037.171-.058.065-.017.442-.007.193-.039l1.447,1.1q-.07-.289-.041.091a.618.618,0,0,1-.2.56l-2.507-1.459c-.01.067-.162.527-.061.3-.062.139-.14.272-.212.406a8.91,8.91,0,0,0-.5,1.048c-.11.282-.2.573-.294.862-.1.337.015-.145-.069.158-.094.145-.093.158,0,.037a1.539,1.539,0,0,1-.2.194l2.507.661.027.156-.2.757-.293.29-2.2-1.693a4.69,4.69,0,0,1-.3,1.037c.089-.2-.119.214-.117.209a4.2,4.2,0,0,1-.278.434,2.742,2.742,0,0,0-.635,2.506,1.515,1.515,0,0,0,2.2.9,3.15,3.15,0,0,0,.716-.614,1.547,1.547,0,0,0,0-2.122,1.511,1.511,0,0,0-2.121,0c-.039.048-.314.283-.109.145l2.2.9a1.35,1.35,0,0,1-.04.339c-.006,0,.239-.352.25-.367a5.581,5.581,0,0,0,.438-.67,6.625,6.625,0,0,0,.68-1.894,1.521,1.521,0,0,0-2.2-1.694,1.859,1.859,0,0,0-.907,2.185,1.518,1.518,0,0,0,2.507.662,5,5,0,0,0,1.237-2.317q.033-.1.069-.2-.1.235.013-.006c.1-.17.192-.348.284-.522a4.179,4.179,0,0,0,.5-1.29,1.568,1.568,0,0,0-.69-1.694,1.519,1.519,0,0,0-1.817.235,2.264,2.264,0,0,0-.536,2.267,1.576,1.576,0,0,0,1.446,1.1c.935.122,1.725-.7,2.2-1.394a5.209,5.209,0,0,0,.837-2.1,2.285,2.285,0,0,0-1.141-2.648c-1.624-.7-2.822,1.239-2.722,2.648a1.524,1.524,0,0,0,2.257,1.295,2.876,2.876,0,0,0,1.258-1.868,2.066,2.066,0,0,0-.018-1.354,2.249,2.249,0,0,0-1.458-1.147c-2.242-.661-3.792,2.346-2.279,3.949a1.885,1.885,0,0,0,3-.187,2.2,2.2,0,0,0-.616-2.654,2.466,2.466,0,0,0-2.515-.76,2.661,2.661,0,0,0-1.7,2.357,2.7,2.7,0,0,0,.977,2.6,2.149,2.149,0,0,0,3.084-.766,1.526,1.526,0,0,0-.9-2.2c-1.758-.635-3.674,1.292-4.174,2.831a5.213,5.213,0,0,0,.035,3.876,2.11,2.11,0,0,0,2.486.942,2.228,2.228,0,0,0,1.346-2.7,3.147,3.147,0,0,0-1.344-2.064,2.078,2.078,0,0,0-2.8.7c-.944,1.353-1.018,3.783.621,4.642,1.607.842,3.018-.79,2.748-2.346a2.548,2.548,0,0,0-2.4-2.171,2.584,2.584,0,0,0-2.5,1.788,2.19,2.19,0,0,0,1.294,2.78,2.67,2.67,0,0,0,2.52-.843,2.733,2.733,0,0,0,.712-2.682c-.551-1.962-3.274-3.381-4.862-1.645-1.252,1.368-.673,4.153,1.327,4.421a2.379,2.379,0,0,0,2.58-1.627,3.613,3.613,0,0,0-.4-2.673,3.567,3.567,0,0,0-2.05-1.832,2.562,2.562,0,0,0-3.154,1.166,2.794,2.794,0,0,0,.509,3.413,2.158,2.158,0,0,0,1.931.572,1.9,1.9,0,0,0,1.406-1.494,4.811,4.811,0,0,0-1.676-4.822,2.435,2.435,0,0,0-2.985.182,3.121,3.121,0,0,0-.946,2.347,2.68,2.68,0,0,0,1.634,2.485c1.422.561,2.506-.573,2.625-1.916a5.368,5.368,0,0,0-.251-1.827,3.549,3.549,0,0,0-1.384-2.191,2.1,2.1,0,0,0-2.873.7,2.742,2.742,0,0,0,.262,2.778,2.169,2.169,0,0,0,2.889.967,2.408,2.408,0,0,0,.839-2.737,3.022,3.022,0,0,0-1.955-2.048c-1.562-.391-2.5,1.182-2.246,2.545a2.111,2.111,0,0,0,2.529,1.794,1.5,1.5,0,1,0-.8-2.892Z" fill="#f5afa2"/>
    </g>
    <g id="Grupo_30" data-name="Grupo 30">
      <path id="Caminho_40" data-name="Caminho 40" d="M212.719,538.244a3.939,3.939,0,0,0-.21-1.022v.8a6.316,6.316,0,0,1,.864-2.252,2.613,2.613,0,0,1,1.408-1.227,1.016,1.016,0,0,1,.494.084,3.1,3.1,0,0,1,.705.709.833.833,0,0,1,.223.514,3.842,3.842,0,0,1-.075.833,1.846,1.846,0,0,1-.4.773,4.749,4.749,0,0,0-.686,1.3,4.4,4.4,0,0,1-.622.9,8.419,8.419,0,0,0-.631,1.2c-.387.768-.928,1.448-1.281,2.232-.447.992-.82,2.029-1.247,3.032l2.356-.3.162.295a1.537,1.537,0,0,0-1.845-1.048,1.513,1.513,0,0,0-1.048,1.845,2.624,2.624,0,0,0,.61,1.03,1.51,1.51,0,0,0,2.356-.3c.45-1.059.864-2.14,1.323-3.194.344-.79.917-1.477,1.3-2.257a5.788,5.788,0,0,1,.557-1.024,4.574,4.574,0,0,0,.859-1.419,1.061,1.061,0,0,0,.07-.278c-.008-.2-.035.03-.108.114a7.692,7.692,0,0,0,.538-.656,4.418,4.418,0,0,0,.631-1.442,4.808,4.808,0,0,0-1.626-5c-1.747-1.535-4.137-.987-5.652.559a7.444,7.444,0,0,0-1.715,2.927,11.965,11.965,0,0,0-.412,1.26,2.389,2.389,0,0,0,.3,1.6l-.2-.757,0,.175c.046,1.927,3.047,1.934,3,0Z" fill="#f5afa2"/>
    </g>
    <g id="Grupo_31" data-name="Grupo 31">
      <path id="Caminho_41" data-name="Caminho 41" d="M211.772,537.845a3.658,3.658,0,0,0-.808-1.439c-.241-.309-.469-.757-.737-1.128a5.9,5.9,0,0,0-2.34-1.843c-1.752-.806-4.359-.944-5.79.552-1.5,1.566-1.116,3.879-.4,5.71a9.116,9.116,0,0,0,1.868,2.873,18.222,18.222,0,0,0,2.462,2.164c.533.417,1.021.9,1.568,1.294.191.14.4.252.592.386-.169-.117.108.109.161.157a3.1,3.1,0,0,0,.769.53c.773.365.285.137.186.048.138.124.26.258.4.377a2.933,2.933,0,0,0,.668.425,1.2,1.2,0,0,1,.213.11c-.07-.051-.165-.3-.019.047l.9-2.2-.2.05c-1.869.48-1.077,3.374.8,2.893l.2-.05a1.526,1.526,0,0,0,.9-2.2,2.548,2.548,0,0,0-1.2-1.2c-.444-.237-.669-.561-1.152-.813a11.043,11.043,0,0,1-1.908-1.349c-1.587-1.358-3.692-2.542-4.421-4.626a8.608,8.608,0,0,1-.427-1.535c.025.174-.005-.291,0-.354,0-.27-.011-.143.051-.341.06-.174.068-.208.026-.1q.156-.219.036-.108c.048-.057.4-.315.14-.191a2.65,2.65,0,0,1,1.227-.1c.064,0,.694.082.409.024a3,3,0,0,1,.464.133,5.188,5.188,0,0,1,1.088.638c-.12-.1.19.175.212.2a5.9,5.9,0,0,1,.454.737c.172.273.389.51.57.775.212.309.066-.127.154.252.435,1.88,3.328,1.084,2.893-.8Z" fill="#f5afa2"/>
    </g>
    <g id="Grupo_32" data-name="Grupo 32">
      <path id="Caminho_42" data-name="Caminho 42" d="M205.236,537.021c1.251-.256.849.127,1.205.514.193.21-.126-.09-.026-.114.039-.01,0,.387.028.116l-.014.189-1.44.747c-.1-.022-.449-.339-.281-.143.044.052.1.11.145.157-.214-.212-.09-.132-.047-.044.106.218.1.169.007-.024.017.038.1.286.016.029-.08-.231.008-.016-.012.076.007-.033.1-.353.015-.123l.086-.205,1.286-.542c.065.013.437.269.37.205-.087-.084-.161-.231.022.06-.036-.057-.074-.11-.108-.168-.173-.3-.076-.023-.017-.008-.092-.023,0-.363-.04-.081l.013.108c0-.166-.013-.118-.039.146a1,1,0,0,1-.926.69c-.061,0-.5-.154-.437-.116.162.093-.3-.264-.094-.053-.051-.054-.147-.287-.08-.087a2.069,2.069,0,0,0,.132.256c-.2-.38.02.1.052.207s.068.246.1.369.055.259.081.389c.072.351.021-.17.007.061,0-.017,0,.2,0,.2l.028-.2q-.064.24.069-.1c.354-.57.756.343,1.505-.391-.072.071-.14-.172.014.02l.121.163q-.09-.164-.009.018l.037.1a1.405,1.405,0,0,1-.052-.182c0,.039.005.368.018.11.018-.356-.009,0-.025,0s.228-.557.021-.147c.055-.11.193-.233-.054.039.161-.177-.079.045-.108.064.217-.143-.183.039-.24.06l-.113.014q.238.008-.112-.017c.1.012.22.128-.079-.036.275.151-.2-.22.021.015.178.188,0-.02-.027-.058.053.076.1.154.149.235s.089.168.129.254c-.026-.056-.09-.288-.023-.033.049.186.1.372.147.559.023.088.019.281,0-.069.007.1.02.207.023.312,0,.143-.009.283-.019.426-.019.295-.074.031.009-.021l.775-.315q.513-.608.871-.233c-.221-.035-.033-.149-.011.016-.005-.035.1.475.062.229l0-.067c-.031.168-.027.164.013-.014-.161.238.2-.111-.068.085a.853.853,0,0,1-.206.14c-.085.03-.348-.034-.207.029.072.032.322.156.082.019a1.09,1.09,0,0,1,.22.133c.019-.421-.3-.108-.129-.084.026,0,.22.263.061.059s.043.074.058.1c.058.093.1.192.16.287.131.228,0,0-.015-.05.029.088.062.175.087.265s.042.175.059.264l-.015-.1c-.017-.129-.021-.128-.014.005l0,.1.023-.213c-.042.252.053-.116.108-.189a.713.713,0,0,1,.389-.263c-.273.093.34.008.063,0a.952.952,0,0,1,.478.121l.186.151c-.078-.081-.072-.067.017.041.141.069.057.1-.008-.043.006.015.156.357.064.129a1.027,1.027,0,0,1-.037-.164c-.04.036.048.39.032.1-.006-.109.042-.349-.021.1.018-.126.159-.336-.041.053.052-.1.147-.163-.1.111.152-.167-.1.078-.124.09-.369.213.036.054-.169.058l-.092.013c.169.007.143,0-.079-.02.243.115-.013-.022-.049-.041.013.007.327.193.136.061s.1.1.107.108c.219.19-.111-.208.043.062.056.1.054.206-.008-.054.016.067.04.142.06.21-.126-.42-.048.055-.013-.177.042-.283-.189.306.063-.188-.1.187.033-.148.1-.106,0,0-.134.143-.148.158-.159.182.023.078.062-.035-.014.04-.231.115-.225.134-.029-.089.535-.078.321-.089a1.105,1.105,0,0,1,1.018.674c.028.072.089.519.063.2,0,.063-.1.289-.007.065a1.12,1.12,0,0,1-.18.32c.21-.274-.222.241.018,0l-.171.081q.246-.056-.106.01c.113-.014.237.073-.113-.016-.167-.043-.2-.119-.332-.2l-.108-.146c.067.135.085.16.053.077l-.014-.041c.066.269.083.193.05-.23l.8-.278q.544-.562.94-.172c.157.109.109.149.036.016.308.561.034-.035.106.3.06.277.005-.016.005-.092s.008-.156.009-.234c0-.291.005.107-.017.1a4,4,0,0,1,.122-.489c.055-.211-.054.045-.044.091a.712.712,0,0,1,.085-.159c.17-.25-.191.221-.059.08a1.013,1.013,0,0,1-.685.227h-.295q-.361-.18-.164-.069c-.135-.089-.242-.222-.076-.026-.423-.5-.074-.085-.082-.088.032.053.061.108.088.164l-.076-.185c.13.086.1.642.075.184.008.138-.054.291.032-.113l-.02.073a.955.955,0,0,1,.926-.725c-.12,0-.1,0,.055.016a.715.715,0,0,1,.372.116l.205.157q.228.325.135.174c-.062-.112.116.4.041.088-.049-.2-.118-.074,0,.114a.721.721,0,0,1-.019-.27,4.763,4.763,0,0,1,.015-.478c.005-.064.015-.129.018-.193.017-.322-.059.312,0,.025.033-.164.058-.329.1-.493.023-.1.057-.2.077-.3.059-.294-.157.225-.018.029.046-.064.08-.14.122-.206.023-.036.238-.324.106-.158-.149.186.1-.111.11-.117.082-.089.174-.168.256-.256.179-.189.027-.029-.028.01.093-.065.191-.118.285-.179l-.167.066c.131-.034.127-.041-.01-.021s-.14.013-.013.007c-.247-.046-.291-.044-.134.005l-.9-2.2a.888.888,0,0,1,1.114-.24.87.87,0,0,1,.4.467l-.027-.117c.023.194.027.2.014.027,0-.081,0-.161,0-.241q.022-.272-.016.1c.052-.162.057-.193.017-.094s-.028.071.042-.056a.662.662,0,0,1-.475.355c-.248.058-.36-.043-.567-.107-.079-.074-.057-.053.065.062.038.04.076.079.113.12q.153.177-.025-.048.341.6.085-.961l.538-.538.187-.07h.8q-.229-.042.07.044a.775.775,0,0,1,.387.52l.017.184q.007-.255-.012.059c-.078.158-.091.189-.038.093s.035-.068-.067.083a.754.754,0,0,1-.955.123L213.283,536c0,.213.12-.37.01-.073-.039.1-.066.216-.1.322.083-.229.015-.08-.046.056-.156.349.531-.373.257-.251l2.257,1.295c-.005-.072,0-.146-.007-.218.02.289-.1.021.017-.021.026-.082.023-.08-.009.007a.224.224,0,0,1-.077.123c-.049.061-.31.208-.076.106l-1.156.151a1.184,1.184,0,0,1-.649-.477c0-.007-.148-.379-.087-.188.021.107.018.086-.007-.065s-.023-.173-.017-.055c.031.036-.052.334.01.04.054-.259-.047.19-.073.281-.037.131-.269.609-.065.234-.077.142-.139.292-.221.433-.039.067-.083.131-.123.2-.154.258.059-.019.054-.056.017.129-.528.394-.048.1-.132.081-.182.036.17-.058.065-.018.442-.008.194-.04l1.446,1.1q-.07-.289-.04.091a.618.618,0,0,1-.2.561l-2.507-1.46c-.01.067-.161.527-.061.3-.062.139-.139.273-.212.406a9.072,9.072,0,0,0-.5,1.048c-.109.282-.2.573-.293.862-.1.337.015-.145-.069.158-.1.146-.094.158,0,.038a1.532,1.532,0,0,1-.2.193l2.507.662.027.155-.205.757-.293.291-2.2-1.694a4.738,4.738,0,0,1-.3,1.038c.088-.2-.12.213-.117.208a4.393,4.393,0,0,1-.278.435,2.738,2.738,0,0,0-.636,2.505,1.516,1.516,0,0,0,2.2.9,3.12,3.12,0,0,0,.715-.614,1.544,1.544,0,0,0,0-2.121,1.509,1.509,0,0,0-2.121,0c-.038.047-.313.283-.108.144l2.2.9a1.315,1.315,0,0,1-.041.34c-.006,0,.239-.352.251-.368a5.836,5.836,0,0,0,.438-.669,6.672,6.672,0,0,0,.68-1.9,1.522,1.522,0,0,0-2.2-1.694,1.86,1.86,0,0,0-.907,2.185,1.518,1.518,0,0,0,2.507.662,4.99,4.99,0,0,0,1.237-2.316c.022-.066.045-.131.07-.2q-.1.234.013-.006c.1-.171.191-.348.284-.523a4.181,4.181,0,0,0,.5-1.289,1.567,1.567,0,0,0-.689-1.694,1.519,1.519,0,0,0-1.818.234,2.266,2.266,0,0,0-.536,2.268,1.576,1.576,0,0,0,1.447,1.1c.935.122,1.725-.7,2.2-1.393a5.237,5.237,0,0,0,.837-2.1,2.283,2.283,0,0,0-1.141-2.647c-1.625-.7-2.822,1.239-2.722,2.647a1.524,1.524,0,0,0,2.257,1.3,2.881,2.881,0,0,0,1.257-1.868,2.06,2.06,0,0,0-.018-1.354,2.247,2.247,0,0,0-1.457-1.147c-2.243-.661-3.793,2.345-2.279,3.948a1.884,1.884,0,0,0,2.995-.186,2.2,2.2,0,0,0-.615-2.654,2.465,2.465,0,0,0-2.515-.76,2.66,2.66,0,0,0-1.7,2.357,2.7,2.7,0,0,0,.976,2.595,2.149,2.149,0,0,0,3.085-.766,1.526,1.526,0,0,0-.9-2.2c-1.757-.635-3.674,1.292-4.173,2.832a5.213,5.213,0,0,0,.035,3.876,2.107,2.107,0,0,0,2.486.941,2.227,2.227,0,0,0,1.345-2.7,3.144,3.144,0,0,0-1.343-2.065,2.079,2.079,0,0,0-2.805.7c-.944,1.353-1.019,3.783.621,4.643,1.607.841,3.018-.79,2.748-2.346a2.55,2.55,0,0,0-2.4-2.172,2.584,2.584,0,0,0-2.5,1.788,2.191,2.191,0,0,0,1.294,2.781,2.67,2.67,0,0,0,2.519-.844,2.731,2.731,0,0,0,.713-2.681c-.552-1.962-3.275-3.381-4.863-1.645-1.251,1.367-.672,4.152,1.328,4.421a2.38,2.38,0,0,0,2.58-1.627,3.612,3.612,0,0,0-.4-2.673,3.558,3.558,0,0,0-2.05-1.832,2.56,2.56,0,0,0-3.153,1.165,2.794,2.794,0,0,0,.509,3.413,2.155,2.155,0,0,0,1.931.572,1.9,1.9,0,0,0,1.406-1.493,4.811,4.811,0,0,0-1.676-4.822,2.434,2.434,0,0,0-2.985.181,3.126,3.126,0,0,0-.947,2.347,2.68,2.68,0,0,0,1.634,2.485c1.423.562,2.506-.572,2.625-1.916a5.335,5.335,0,0,0-.251-1.826,3.546,3.546,0,0,0-1.384-2.192,2.1,2.1,0,0,0-2.872.7,2.741,2.741,0,0,0,.262,2.777,2.169,2.169,0,0,0,2.889.968,2.409,2.409,0,0,0,.839-2.738,3.028,3.028,0,0,0-1.956-2.048c-1.562-.391-2.5,1.183-2.245,2.546a2.11,2.11,0,0,0,2.528,1.794,1.5,1.5,0,0,0-.8-2.893Z" fill="#f5afa2"/>
    </g>
    <g id="Grupo_33" data-name="Grupo 33">
      <path id="Caminho_43" data-name="Caminho 43" d="M258.576,429.376a3.846,3.846,0,0,0-.21-1.022v.8a6.316,6.316,0,0,1,.864-2.252,2.608,2.608,0,0,1,1.409-1.227,1.014,1.014,0,0,1,.493.084,3.078,3.078,0,0,1,.705.709.833.833,0,0,1,.223.513,3.833,3.833,0,0,1-.075.833,1.844,1.844,0,0,1-.4.774,4.748,4.748,0,0,0-.686,1.3,4.368,4.368,0,0,1-.622.9,8.486,8.486,0,0,0-.631,1.2c-.387.768-.928,1.447-1.281,2.231-.447.993-.82,2.029-1.246,3.033l2.356-.3.161.294a1.537,1.537,0,0,0-1.845-1.047,1.514,1.514,0,0,0-1.048,1.845,2.636,2.636,0,0,0,.61,1.03,1.51,1.51,0,0,0,2.356-.3c.45-1.059.864-2.141,1.323-3.194.345-.79.918-1.477,1.3-2.257a5.72,5.72,0,0,1,.556-1.024,4.579,4.579,0,0,0,.859-1.42,1.051,1.051,0,0,0,.07-.278c-.008-.2-.035.031-.108.115a7.887,7.887,0,0,0,.539-.656,4.415,4.415,0,0,0,.63-1.442,4.808,4.808,0,0,0-1.626-5c-1.747-1.535-4.137-.987-5.652.559a7.43,7.43,0,0,0-1.714,2.927,11.732,11.732,0,0,0-.413,1.26,2.4,2.4,0,0,0,.3,1.6l-.2-.757,0,.175c.047,1.927,3.047,1.934,3,0Z" fill="#f5afa2"/>
    </g>
    <g id="Grupo_34" data-name="Grupo 34">
      <path id="Caminho_44" data-name="Caminho 44" d="M257.629,428.977a3.655,3.655,0,0,0-.807-1.439c-.241-.309-.47-.757-.738-1.128a5.9,5.9,0,0,0-2.34-1.843c-1.752-.807-4.359-.944-5.79.552-1.5,1.566-1.115,3.879-.4,5.71a9.082,9.082,0,0,0,1.868,2.873,18.141,18.141,0,0,0,2.461,2.163c.534.417,1.021.9,1.568,1.3.191.14.4.252.592.386-.169-.117.108.109.161.157a3.06,3.06,0,0,0,.77.529c.772.366.284.138.185.048.139.125.26.259.406.377a2.84,2.84,0,0,0,.667.425,1.2,1.2,0,0,1,.213.111c-.07-.051-.165-.3-.019.047l.9-2.2-.2.05c-1.869.48-1.077,3.374.8,2.893l.2-.05a1.527,1.527,0,0,0,.9-2.2,2.551,2.551,0,0,0-1.2-1.2c-.444-.238-.669-.561-1.152-.813a11.044,11.044,0,0,1-1.908-1.349c-1.587-1.358-3.691-2.542-4.42-4.626a8.551,8.551,0,0,1-.428-1.535c.025.174,0-.292,0-.354,0-.27-.01-.144.051-.341.06-.175.068-.208.026-.1q.156-.219.037-.108c.047-.057.394-.315.139-.191a2.649,2.649,0,0,1,1.227-.1c.064,0,.694.082.409.024a3,3,0,0,1,.464.133,5.184,5.184,0,0,1,1.088.638c-.119-.1.191.175.213.2a5.98,5.98,0,0,1,.453.738c.172.273.389.51.57.775.213.309.066-.128.154.252.435,1.88,3.328,1.084,2.893-.8Z" fill="#f5afa2"/>
    </g>
    <g id="Grupo_35" data-name="Grupo 35">
      <path id="Caminho_45" data-name="Caminho 45" d="M251.093,428.153c1.251-.256.849.127,1.205.513.194.211-.125-.089-.026-.113.039-.01,0,.387.028.116l-.014.189-1.44.747c-.1-.022-.449-.339-.281-.143.044.052.1.11.145.156-.213-.211-.089-.131-.047-.043.106.218.1.169.007-.024.017.038.1.286.016.029-.079-.231.008-.016-.012.076.007-.033.1-.354.015-.124l.086-.2,1.286-.542c.065.012.437.269.37.2-.087-.084-.161-.231.022.06-.035-.057-.074-.11-.108-.168-.173-.3-.076-.023-.017-.009-.092-.023,0-.363-.04-.08l.013.108q0-.251-.039.146a1,1,0,0,1-.926.69c-.061,0-.5-.155-.437-.116.162.093-.294-.264-.094-.053-.051-.054-.147-.287-.08-.087a1.987,1.987,0,0,0,.132.255c-.2-.38.02.1.053.208s.067.245.1.369.054.259.081.389c.072.351.02-.17.006.06,0-.016,0,.2,0,.2l.029-.2q-.066.24.068-.1c.354-.57.757.343,1.506-.391-.072.071-.141-.172.013.019l.121.164q-.09-.164-.009.018l.037.1a1.4,1.4,0,0,1-.052-.182c0,.039.006.367.018.11.018-.356-.009,0-.024,0s.227-.557.02-.147c.055-.11.193-.233-.054.039.161-.178-.079.045-.108.063.218-.142-.182.04-.24.061l-.113.014c.16.005.122,0-.112-.018.1.013.22.129-.079-.036.275.152-.2-.219.021.016.178.188,0-.021-.027-.058.053.076.1.153.149.234s.089.169.13.255c-.027-.056-.091-.288-.024-.033.049.186.1.372.148.559.022.088.018.281,0-.069.007.1.02.207.023.312,0,.143-.009.283-.018.426-.02.295-.075.031.008-.021l.775-.315q.513-.607.871-.233c-.22-.035-.033-.149-.011.015,0-.035.1.476.062.23v-.067q-.048.252.012-.014c-.161.238.2-.111-.068.084a.856.856,0,0,1-.206.141c-.085.029-.348-.034-.207.028.072.033.322.157.082.019.033.019.221.113.22.134.019-.421-.3-.108-.129-.084.026,0,.22.263.061.058s.043.075.058.1c.058.093.105.192.16.287.131.227,0,0-.015-.05.03.088.062.175.087.265s.043.175.06.264l-.016-.1c-.016-.129-.021-.128-.014.005l0,.1.023-.212c-.042.252.053-.117.108-.189a.714.714,0,0,1,.389-.263c-.273.093.34.008.064,0a.949.949,0,0,1,.477.121l.186.15c-.078-.08-.072-.066.017.042.141.069.058.1-.008-.043.006.014.156.357.064.129a1.028,1.028,0,0,1-.037-.164c-.04.036.049.389.032.1-.006-.108.042-.348-.02.1.017-.126.158-.336-.042.052.052-.1.148-.162-.1.112.152-.167-.1.078-.123.089-.37.213.035.055-.17.059l-.092.013c.169.006.143,0-.079-.02.243.115-.012-.022-.049-.041.013.006.328.193.136.061s.1.1.108.108c.219.19-.112-.208.042.062.057.1.054.206-.008-.055.016.067.04.143.06.211-.126-.42-.048.055-.013-.177.042-.283-.188.3.063-.188-.1.187.033-.148.1-.106,0,0-.134.142-.148.158-.159.182.023.078.062-.035-.014.04-.231.115-.225.134-.029-.09.535-.078.321-.09a1.107,1.107,0,0,1,1.018.674c.028.073.089.52.063.2.006.063-.1.288-.006.065a1.137,1.137,0,0,1-.181.32c.21-.275-.222.241.018,0l-.171.081q.246-.055-.106.01c.113-.014.237.073-.113-.016-.167-.043-.2-.12-.332-.2l-.108-.146c.067.134.085.16.054.077l-.015-.041q.1.4.05-.23l.8-.279q.545-.561.941-.171c.156.109.108.149.035.016.308.561.035-.035.106.3.06.277.006-.016.005-.092s.008-.156.009-.235c0-.29.005.108-.017.1a4.067,4.067,0,0,1,.122-.49c.055-.21-.054.046-.044.091a.706.706,0,0,1,.085-.158c.171-.25-.191.221-.059.08a1.018,1.018,0,0,1-.685.227h-.3q-.361-.18-.164-.069c-.135-.089-.242-.222-.076-.026-.423-.5-.074-.085-.082-.088.032.053.061.108.088.164l-.076-.185c.13.086.1.642.076.184.007.138-.055.291.031-.114l-.02.074a.955.955,0,0,1,.926-.725c-.119,0-.1,0,.055.016a.723.723,0,0,1,.373.115l.2.158q.228.324.135.173c-.062-.111.116.4.041.089-.049-.2-.118-.075,0,.114a.724.724,0,0,1-.019-.271,4.744,4.744,0,0,1,.015-.477c.005-.064.015-.129.018-.193.017-.322-.059.312,0,.025.033-.164.058-.329.1-.493.023-.1.056-.2.076-.3.059-.294-.157.225-.018.028.046-.064.08-.139.122-.205.023-.036.239-.324.106-.158-.149.186.1-.111.11-.118.082-.088.174-.167.256-.255.18-.189.028-.029-.028.01.093-.065.191-.118.285-.179l-.167.066c.131-.034.127-.041-.01-.021s-.14.013-.013.007q-.369-.069-.134.005l-.9-2.2a.875.875,0,0,1,1.517.226l-.028-.116q.034.289.015.026c0-.08,0-.16,0-.241.016-.18.011-.147-.015.1.051-.162.056-.193.016-.094s-.028.07.042-.056a.664.664,0,0,1-.475.355c-.248.058-.36-.043-.567-.107-.079-.074-.057-.053.065.062.038.039.076.079.113.119q.153.178-.025-.047.34.6.085-.961l.538-.538.187-.071h.8q-.231-.041.069.045a.769.769,0,0,1,.387.52l.017.184q.008-.255-.012.059c-.078.158-.091.189-.038.093s.035-.068-.067.083a.754.754,0,0,1-.955.123l-.439-1.061c0,.213.12-.37.01-.073-.039.105-.066.216-.1.322.083-.23.015-.081-.046.056-.156.349.531-.373.257-.251l2.257,1.295c-.005-.073,0-.146-.007-.218.02.289-.1.021.017-.021.026-.082.023-.08-.009.007a.218.218,0,0,1-.077.122c-.049.062-.31.209-.076.107l-1.156.151a1.183,1.183,0,0,1-.648-.477c0-.007-.149-.379-.088-.188.021.107.019.085-.006-.065s-.024-.173-.018-.056c.031.037-.052.335.01.041.054-.259-.047.19-.072.281-.038.131-.27.609-.066.234-.077.142-.139.292-.22.433-.04.067-.084.131-.123.2-.155.259.058-.019.053-.055.017.129-.528.394-.048.1-.132.081-.182.036.171-.058.064-.018.441-.008.193-.04l1.446,1.1q-.07-.289-.04.091a.617.617,0,0,1-.2.56l-2.507-1.459c-.011.067-.162.527-.061.3-.062.139-.14.273-.213.406a9.241,9.241,0,0,0-.5,1.048c-.109.282-.2.573-.293.862-.105.337.015-.145-.069.158-.1.146-.094.158,0,.038a1.527,1.527,0,0,1-.2.193l2.507.662.027.155-.205.757-.293.291-2.2-1.694a4.744,4.744,0,0,1-.3,1.037c.089-.2-.12.214-.117.209a4.4,4.4,0,0,1-.278.435,2.743,2.743,0,0,0-.636,2.505,1.516,1.516,0,0,0,2.2.9,3.146,3.146,0,0,0,.716-.614,1.546,1.546,0,0,0,0-2.121,1.51,1.51,0,0,0-2.122,0c-.038.047-.313.282-.108.144l2.2.9a1.32,1.32,0,0,1-.041.34c-.006,0,.239-.352.251-.368a5.574,5.574,0,0,0,.438-.669,6.671,6.671,0,0,0,.68-1.895,1.522,1.522,0,0,0-2.2-1.694,1.86,1.86,0,0,0-.908,2.185,1.518,1.518,0,0,0,2.507.662,5,5,0,0,0,1.238-2.317c.021-.065.045-.13.069-.2q-.1.236.013-.005c.1-.171.192-.349.284-.523a4.156,4.156,0,0,0,.5-1.289,1.565,1.565,0,0,0-.689-1.694,1.519,1.519,0,0,0-1.818.234,2.265,2.265,0,0,0-.535,2.268,1.574,1.574,0,0,0,1.446,1.1c.935.122,1.725-.7,2.2-1.393a5.229,5.229,0,0,0,.837-2.1,2.285,2.285,0,0,0-1.141-2.648c-1.625-.7-2.822,1.239-2.722,2.648a1.524,1.524,0,0,0,2.257,1.3,2.872,2.872,0,0,0,1.257-1.868,2.06,2.06,0,0,0-.017-1.354,2.253,2.253,0,0,0-1.458-1.146c-2.242-.662-3.792,2.345-2.279,3.948a1.885,1.885,0,0,0,3-.187,2.2,2.2,0,0,0-.616-2.653,2.463,2.463,0,0,0-2.515-.76,2.659,2.659,0,0,0-1.7,2.357,2.7,2.7,0,0,0,.977,2.6,2.148,2.148,0,0,0,3.084-.766,1.526,1.526,0,0,0-.9-2.2c-1.758-.635-3.675,1.292-4.174,2.832a5.21,5.21,0,0,0,.035,3.875,2.107,2.107,0,0,0,2.486.942,2.228,2.228,0,0,0,1.346-2.7,3.149,3.149,0,0,0-1.344-2.065,2.078,2.078,0,0,0-2.8.7c-.944,1.353-1.018,3.783.621,4.642,1.607.842,3.018-.79,2.748-2.346a2.549,2.549,0,0,0-2.4-2.171,2.584,2.584,0,0,0-2.5,1.788,2.19,2.19,0,0,0,1.294,2.78,2.667,2.667,0,0,0,2.519-.843,2.732,2.732,0,0,0,.713-2.681c-.552-1.963-3.275-3.382-4.863-1.646-1.251,1.368-.672,4.153,1.328,4.422a2.381,2.381,0,0,0,2.58-1.627,3.611,3.611,0,0,0-.4-2.674,3.556,3.556,0,0,0-2.05-1.831,2.559,2.559,0,0,0-3.153,1.165,2.794,2.794,0,0,0,.509,3.413,2.158,2.158,0,0,0,1.931.572,1.9,1.9,0,0,0,1.406-1.494,4.81,4.81,0,0,0-1.676-4.821,2.434,2.434,0,0,0-2.985.181,3.125,3.125,0,0,0-.947,2.347,2.682,2.682,0,0,0,1.634,2.485c1.423.562,2.507-.572,2.625-1.916a5.344,5.344,0,0,0-.251-1.827,3.547,3.547,0,0,0-1.384-2.191,2.1,2.1,0,0,0-2.872.7,2.742,2.742,0,0,0,.262,2.778,2.169,2.169,0,0,0,2.889.968,2.409,2.409,0,0,0,.839-2.738,3.028,3.028,0,0,0-1.956-2.048c-1.562-.391-2.5,1.182-2.245,2.546a2.111,2.111,0,0,0,2.529,1.794,1.5,1.5,0,0,0-.8-2.893Z" fill="#f5afa2"/>
    </g>
    <g id="Grupo_36" data-name="Grupo 36">
      <path id="Caminho_46" data-name="Caminho 46" d="M263.314,476.053h.479a1.149,1.149,0,0,0,.578-.129,1.541,1.541,0,0,0,.922-1.371l-.054-.4a1.5,1.5,0,0,0-.385-.662l-.3-.235a1.5,1.5,0,0,0-.757-.2h-.479a1.541,1.541,0,0,0-1.5,1.5l.053.4a1.5,1.5,0,0,0,.386.662l.3.235a1.491,1.491,0,0,0,.757.205h.479a1.149,1.149,0,0,0,.578-.129,1.541,1.541,0,0,0,.922-1.371l-.054-.4a1.5,1.5,0,0,0-.385-.662l-.3-.235a1.5,1.5,0,0,0-.757-.2h-.479a1.541,1.541,0,0,0-1.5,1.5l.053.4a1.5,1.5,0,0,0,.386.662l.3.235a1.491,1.491,0,0,0,.757.205Z" fill="#cad2c1"/>
    </g>
    <g id="Grupo_37" data-name="Grupo 37">
      <path id="Caminho_47" data-name="Caminho 47" d="M319.473,441.436a3.846,3.846,0,0,0-.21-1.022v.8a6.337,6.337,0,0,1,.865-2.252,2.606,2.606,0,0,1,1.408-1.227,1.02,1.02,0,0,1,.494.084,3.1,3.1,0,0,1,.7.709.822.822,0,0,1,.223.514,3.818,3.818,0,0,1-.074.832,1.843,1.843,0,0,1-.4.774,4.724,4.724,0,0,0-.687,1.3,4.394,4.394,0,0,1-.621.9,8.422,8.422,0,0,0-.631,1.2c-.387.768-.928,1.448-1.281,2.232-.448.992-.821,2.028-1.247,3.032l2.356-.3.162.3a1.538,1.538,0,0,0-1.846-1.048,1.514,1.514,0,0,0-1.047,1.845,2.612,2.612,0,0,0,.61,1.03,1.51,1.51,0,0,0,2.356-.3c.449-1.059.863-2.14,1.322-3.194.345-.79.918-1.477,1.3-2.257a5.662,5.662,0,0,1,.557-1.024,4.6,4.6,0,0,0,.859-1.419,1.057,1.057,0,0,0,.069-.278c-.007-.2-.035.03-.107.114a7.68,7.68,0,0,0,.538-.656,4.417,4.417,0,0,0,.631-1.442,4.807,4.807,0,0,0-1.627-5c-1.746-1.535-4.136-.987-5.652.559a7.454,7.454,0,0,0-1.714,2.927,11.958,11.958,0,0,0-.412,1.26,2.389,2.389,0,0,0,.3,1.6l-.205-.757,0,.175c.047,1.927,3.047,1.934,3,0Z" fill="#f5afa2"/>
    </g>
    <g id="Grupo_38" data-name="Grupo 38">
      <path id="Caminho_48" data-name="Caminho 48" d="M318.526,441.037a3.643,3.643,0,0,0-.807-1.439c-.241-.309-.47-.757-.737-1.128a5.9,5.9,0,0,0-2.34-1.843c-1.753-.806-4.359-.944-5.791.552-1.5,1.566-1.115,3.879-.4,5.71a9.1,9.1,0,0,0,1.868,2.873,18.211,18.211,0,0,0,2.461,2.164c.534.417,1.021.9,1.568,1.294.192.14.4.252.593.386-.17-.117.108.109.161.157a3.084,3.084,0,0,0,.769.53c.773.365.285.137.185.048.139.124.26.258.406.376a2.92,2.92,0,0,0,.667.426,1.171,1.171,0,0,1,.214.11c-.07-.051-.166-.3-.019.047l.9-2.2-.2.05c-1.868.48-1.076,3.374.8,2.893l.2-.05a1.526,1.526,0,0,0,.9-2.2,2.546,2.546,0,0,0-1.2-1.2c-.443-.237-.668-.561-1.152-.813a11.035,11.035,0,0,1-1.907-1.349c-1.588-1.358-3.692-2.542-4.421-4.626a8.552,8.552,0,0,1-.428-1.535c.026.174,0-.291,0-.354,0-.27-.01-.144.052-.341.059-.174.068-.208.025-.1.1-.146.117-.182.037-.108.048-.057.4-.315.139-.191a2.651,2.651,0,0,1,1.227-.1c.065,0,.695.082.41.024a2.985,2.985,0,0,1,.463.133,5.165,5.165,0,0,1,1.089.638c-.12-.1.19.175.212.2a5.978,5.978,0,0,1,.453.738c.173.273.389.51.571.775.212.309.066-.128.154.252.434,1.88,3.328,1.084,2.892-.8Z" fill="#f5afa2"/>
    </g>
    <g id="Grupo_39" data-name="Grupo 39">
      <path id="Caminho_49" data-name="Caminho 49" d="M311.991,440.213c1.251-.256.848.127,1.2.513.194.211-.125-.089-.026-.113.04-.01,0,.387.029.116l-.014.189-1.441.747c-.1-.022-.448-.339-.281-.143.044.052.1.11.146.156-.214-.211-.09-.131-.047-.043.106.218.1.169.007-.024.017.038.1.286.016.029-.08-.231.008-.016-.012.076.007-.033.1-.353.014-.124l.086-.2,1.286-.542c.066.012.438.269.371.2-.087-.084-.161-.231.022.06-.036-.057-.075-.11-.108-.168-.173-.3-.076-.023-.017-.009-.092-.022,0-.363-.04-.08l.013.108q0-.25-.039.146a1,1,0,0,1-.927.69c-.061,0-.5-.154-.437-.116.163.093-.294-.264-.093-.053-.052-.054-.147-.287-.081-.087a2.216,2.216,0,0,0,.132.256c-.2-.38.021.1.053.207s.067.246.1.369.054.259.081.389c.072.351.021-.17.007.061,0-.017,0,.2,0,.2l.029-.2q-.064.24.068-.1c.355-.57.757.343,1.506-.391-.072.071-.141-.172.014.02l.121.163c-.06-.109-.064-.1-.01.018l.038.1a1.262,1.262,0,0,1-.052-.182c0,.039.005.367.018.11.017-.356-.009,0-.025,0s.228-.557.02-.147c.056-.11.193-.233-.054.039.161-.178-.078.045-.107.064.217-.143-.183.039-.24.06l-.113.014c.159.005.122,0-.113-.018.1.013.221.129-.078-.035.274.151-.2-.22.021.015.177.188,0-.021-.027-.058.053.076.1.154.149.235s.088.168.129.254c-.026-.056-.091-.288-.024-.033.05.186.1.372.148.559.022.088.019.281,0-.069.006.1.02.207.022.312,0,.143-.009.283-.018.426-.019.3-.075.031.009-.021l.774-.315q.515-.607.871-.233c-.22-.035-.033-.149-.01.016,0-.035.1.475.061.229v-.067c-.032.168-.028.164.013-.014-.161.238.2-.111-.068.085a.888.888,0,0,1-.207.14c-.084.029-.347-.034-.207.029.073.032.323.156.083.019a1.117,1.117,0,0,1,.22.133c.019-.421-.3-.108-.13-.084.026,0,.221.263.062.059s.042.074.057.1c.058.093.106.192.16.287.131.228,0,0-.015-.05.03.088.063.175.088.265s.042.175.059.264l-.015-.1c-.017-.129-.021-.128-.014.005l-.005.1.023-.213c-.041.252.054-.117.108-.189a.719.719,0,0,1,.39-.263c-.273.093.34.008.063,0a.952.952,0,0,1,.478.121l.186.15c-.078-.08-.072-.066.017.042.141.069.057.1-.009-.043.007.014.157.357.065.129a.93.93,0,0,1-.037-.164c-.041.036.048.389.032.1-.006-.109.042-.349-.021.1.018-.126.159-.336-.042.053.052-.1.148-.163-.1.111.151-.167-.1.078-.124.089-.369.214.036.055-.169.059l-.093.013c.17.006.143,0-.078-.02.243.115-.013-.022-.049-.041.013.007.327.193.135.061s.1.1.108.108c.219.19-.111-.208.042.062.057.1.054.206-.007-.054.016.067.039.142.06.21-.126-.42-.048.055-.013-.177.042-.283-.189.305.063-.188-.1.187.033-.148.1-.106,0,0-.134.142-.148.158-.158.182.024.078.062-.035-.013.04-.23.115-.224.134-.029-.089.535-.078.321-.089a1.106,1.106,0,0,1,1.018.674c.027.072.089.519.063.2.005.063-.1.288-.007.065a1.144,1.144,0,0,1-.18.32c.21-.275-.222.241.018,0l-.171.081c.164-.037.128-.034-.106.01.112-.014.237.073-.113-.016-.168-.043-.2-.119-.332-.2l-.108-.146c.067.135.084.16.053.077l-.014-.041c.066.269.082.193.049-.23l.8-.278q.545-.562.94-.172c.157.109.109.149.036.016.308.561.034-.035.106.3.06.277.005-.016.005-.092s.007-.156.009-.234c0-.291,0,.107-.017.1a4.173,4.173,0,0,1,.121-.489c.056-.211-.053.045-.043.09a.651.651,0,0,1,.085-.158c.17-.25-.192.221-.059.08a1.015,1.015,0,0,1-.686.227H317.5c-.242-.12-.3-.143-.165-.069-.135-.089-.241-.222-.075-.026-.423-.5-.074-.085-.083-.088.032.053.062.108.089.164l-.076-.185c.13.086.1.642.075.184.008.138-.055.291.032-.113l-.021.073a.957.957,0,0,1,.927-.725c-.12,0-.1,0,.055.016a.723.723,0,0,1,.372.115l.2.158q.228.326.135.174c-.063-.112.115.395.04.088-.049-.2-.117-.075,0,.114a.745.745,0,0,1-.018-.271,4.222,4.222,0,0,1,.015-.477c0-.064.014-.129.018-.193.017-.322-.059.312,0,.025.032-.164.058-.329.1-.493.023-.1.056-.2.077-.3.059-.294-.158.225-.018.028.045-.063.079-.139.122-.2.023-.036.238-.324.106-.158-.149.186.1-.111.11-.118.082-.088.173-.167.256-.255.179-.189.027-.029-.029.01.093-.065.192-.118.286-.179l-.167.066c.13-.034.127-.041-.01-.021s-.141.013-.013.007q-.371-.069-.134.005l-.9-2.2a.885.885,0,0,1,1.113-.24.874.874,0,0,1,.4.466l-.027-.116q.033.289.014.026,0-.12,0-.24.024-.271-.015.1c.051-.162.057-.193.016-.094s-.028.071.042-.056a.66.66,0,0,1-.475.355c-.247.058-.36-.043-.567-.107-.078-.074-.057-.053.065.062q.059.059.114.12.153.177-.026-.048.342.6.086-.961l.538-.538.187-.07h.8q-.231-.042.07.044a.771.771,0,0,1,.386.52l.017.184c.005-.17,0-.15-.011.059q-.118.237-.039.093c.058-.1.035-.068-.066.083a.754.754,0,0,1-.955.123l-.44-1.061c.005.213.12-.37.01-.073-.038.105-.065.216-.1.322.083-.229.014-.081-.046.056-.156.349.531-.373.257-.251l2.257,1.295c-.006-.073,0-.146-.007-.218.019.289-.1.021.017-.021.026-.082.023-.08-.01.007a.217.217,0,0,1-.076.123c-.049.061-.31.208-.076.106l-1.156.151a1.182,1.182,0,0,1-.649-.477c0-.007-.149-.379-.087-.188.02.107.018.086-.007-.065s-.023-.173-.017-.056c.031.037-.052.335.009.041.055-.259-.046.19-.072.281-.037.131-.269.609-.065.234-.078.142-.139.292-.221.433-.039.067-.083.131-.123.2-.154.258.058-.019.053-.056.018.129-.527.394-.047.1-.133.081-.183.036.17-.058.065-.018.442-.008.194-.04l1.446,1.1q-.07-.289-.04.091a.617.617,0,0,1-.2.561l-2.507-1.46c-.01.067-.161.527-.061.3-.062.139-.139.273-.212.406a8.91,8.91,0,0,0-.5,1.048c-.11.282-.2.573-.294.862-.1.337.016-.145-.068.158-.1.146-.094.158,0,.038a1.53,1.53,0,0,1-.2.193l2.507.662.026.155-.2.757-.294.291-2.2-1.694a4.808,4.808,0,0,1-.3,1.038c.088-.2-.12.213-.117.208a4.393,4.393,0,0,1-.278.435,2.738,2.738,0,0,0-.636,2.505,1.515,1.515,0,0,0,2.2.9,3.125,3.125,0,0,0,.716-.614,1.545,1.545,0,0,0,0-2.121,1.509,1.509,0,0,0-2.121,0c-.038.047-.314.283-.109.144l2.2.9a1.408,1.408,0,0,1-.041.34c-.006,0,.239-.352.25-.368a5.574,5.574,0,0,0,.438-.669,6.673,6.673,0,0,0,.681-1.895,1.522,1.522,0,0,0-2.2-1.694,1.859,1.859,0,0,0-.907,2.185,1.518,1.518,0,0,0,2.507.662,4.99,4.99,0,0,0,1.237-2.316c.022-.066.045-.131.07-.2-.069.156-.064.154.012-.006.1-.171.192-.349.285-.523a4.206,4.206,0,0,0,.5-1.289,1.568,1.568,0,0,0-.689-1.694,1.519,1.519,0,0,0-1.818.234,2.266,2.266,0,0,0-.536,2.268,1.575,1.575,0,0,0,1.447,1.1c.935.122,1.724-.7,2.2-1.393a5.224,5.224,0,0,0,.838-2.1,2.286,2.286,0,0,0-1.141-2.648c-1.625-.7-2.822,1.239-2.722,2.648a1.524,1.524,0,0,0,2.257,1.3,2.881,2.881,0,0,0,1.257-1.868,2.069,2.069,0,0,0-.018-1.355,2.248,2.248,0,0,0-1.458-1.146c-2.242-.661-3.792,2.345-2.279,3.948a1.885,1.885,0,0,0,3-.187,2.2,2.2,0,0,0-.615-2.653,2.466,2.466,0,0,0-2.516-.76,2.663,2.663,0,0,0-1.7,2.357,2.7,2.7,0,0,0,.977,2.6A2.149,2.149,0,0,0,321.4,442a1.527,1.527,0,0,0-.9-2.2c-1.758-.635-3.674,1.292-4.174,2.832a5.208,5.208,0,0,0,.036,3.876,2.107,2.107,0,0,0,2.486.941,2.228,2.228,0,0,0,1.345-2.7,3.151,3.151,0,0,0-1.343-2.065,2.078,2.078,0,0,0-2.8.7c-.945,1.353-1.019,3.783.621,4.642,1.606.842,3.017-.789,2.747-2.346a2.548,2.548,0,0,0-2.4-2.171,2.585,2.585,0,0,0-2.5,1.788,2.191,2.191,0,0,0,1.294,2.78,2.67,2.67,0,0,0,2.52-.843,2.729,2.729,0,0,0,.712-2.681c-.551-1.962-3.274-3.382-4.862-1.646-1.251,1.368-.672,4.153,1.328,4.422a2.381,2.381,0,0,0,2.58-1.627,3.617,3.617,0,0,0-.4-2.673,3.558,3.558,0,0,0-2.05-1.832,2.562,2.562,0,0,0-3.154,1.165,2.8,2.8,0,0,0,.51,3.413,2.157,2.157,0,0,0,1.931.572,1.9,1.9,0,0,0,1.4-1.494,4.809,4.809,0,0,0-1.675-4.821,2.434,2.434,0,0,0-2.985.181,3.122,3.122,0,0,0-.947,2.347,2.679,2.679,0,0,0,1.634,2.485c1.422.562,2.506-.572,2.625-1.916a5.359,5.359,0,0,0-.251-1.826,3.551,3.551,0,0,0-1.384-2.192,2.1,2.1,0,0,0-2.872.7,2.741,2.741,0,0,0,.261,2.777,2.169,2.169,0,0,0,2.889.968,2.41,2.41,0,0,0,.84-2.738,3.028,3.028,0,0,0-1.956-2.048c-1.562-.391-2.5,1.183-2.245,2.546a2.11,2.11,0,0,0,2.528,1.794,1.5,1.5,0,1,0-.8-2.893Z" fill="#f5afa2"/>
    </g>
    <path id="Caminho_50" data-name="Caminho 50" d="M212.967,430.947q-2.361.053-4.71.254c-.483-.743-.978-1.48-1.494-2.2-1.069-1.5-3.538-.128-2.62,1.384l0,.006-.215,1.3q-1.426.2-2.848.451c-1.839.325-1.1,3.086.7,2.859a1.678,1.678,0,0,0,.113.131c.4.422.83.822,1.264,1.211q-.492,2.964-.983,5.926a1.491,1.491,0,0,0,2.469,1.437,13.775,13.775,0,0,0,3.071-3.975q1.617,1.251,3.208,2.535a1.485,1.485,0,0,0,2.32-1.79q-.993-2.292-2.159-4.489a13.6,13.6,0,0,1,2.632-2.285A1.489,1.489,0,0,0,212.967,430.947Z" fill="#fbe6ce" fill-rule="evenodd"/>
    <g id="Grupo_40" data-name="Grupo 40">
      <path id="Caminho_51" data-name="Caminho 51" d="M220.294,467.168a3.855,3.855,0,0,0-.21-1.022v.8a6.321,6.321,0,0,1,.864-2.253,2.609,2.609,0,0,1,1.409-1.226,1.013,1.013,0,0,1,.493.083,3.119,3.119,0,0,1,.7.709.836.836,0,0,1,.223.514,3.841,3.841,0,0,1-.075.833,1.838,1.838,0,0,1-.4.774,4.73,4.73,0,0,0-.686,1.3,4.4,4.4,0,0,1-.622.9,8.524,8.524,0,0,0-.631,1.2c-.387.768-.927,1.448-1.281,2.232-.447.992-.82,2.029-1.246,3.032l2.356-.3.161.294a1.537,1.537,0,0,0-1.845-1.048,1.515,1.515,0,0,0-1.048,1.845,2.635,2.635,0,0,0,.61,1.03,1.51,1.51,0,0,0,2.356-.3c.45-1.059.864-2.14,1.323-3.193.345-.791.918-1.478,1.3-2.257a5.638,5.638,0,0,1,.557-1.025,4.593,4.593,0,0,0,.859-1.419,1.059,1.059,0,0,0,.069-.278c-.007-.2-.035.03-.107.114a8.082,8.082,0,0,0,.538-.656,4.394,4.394,0,0,0,.63-1.442,4.8,4.8,0,0,0-1.626-5c-1.747-1.535-4.136-.987-5.652.559a7.441,7.441,0,0,0-1.714,2.927,11.812,11.812,0,0,0-.413,1.26,2.4,2.4,0,0,0,.3,1.605l-.205-.758,0,.175c.047,1.927,3.047,1.935,3,0Z" fill="#f5afa2"/>
    </g>
    <g id="Grupo_41" data-name="Grupo 41">
      <path id="Caminho_52" data-name="Caminho 52" d="M219.347,466.769a3.645,3.645,0,0,0-.807-1.438c-.241-.31-.47-.758-.738-1.128a5.893,5.893,0,0,0-2.34-1.844c-1.752-.806-4.359-.944-5.79.552-1.5,1.566-1.115,3.879-.4,5.71a9.081,9.081,0,0,0,1.868,2.873,18.08,18.08,0,0,0,2.461,2.164c.534.417,1.021.9,1.568,1.294.191.14.4.252.593.386-.17-.116.108.109.16.157a3.089,3.089,0,0,0,.77.53c.772.365.285.137.185.048.139.124.26.258.406.377a2.928,2.928,0,0,0,.667.425,1.193,1.193,0,0,1,.213.11c-.07-.051-.165-.3-.019.048l.9-2.2-.2.051c-1.869.479-1.077,3.373.8,2.892l.2-.05a1.527,1.527,0,0,0,.9-2.2,2.55,2.55,0,0,0-1.2-1.2c-.444-.237-.669-.561-1.152-.812a11.107,11.107,0,0,1-1.907-1.349c-1.588-1.358-3.692-2.543-4.421-4.627a8.531,8.531,0,0,1-.428-1.535c.026.174-.005-.291,0-.354,0-.27-.01-.143.052-.34.059-.175.068-.209.025-.1.1-.147.116-.183.037-.109.047-.057.394-.315.139-.19a2.636,2.636,0,0,1,1.227-.1c.065,0,.694.082.409.024a2.866,2.866,0,0,1,.464.134,5.134,5.134,0,0,1,1.088.637c-.119-.1.191.175.213.2a5.89,5.89,0,0,1,.453.737c.172.274.389.51.571.775.212.31.066-.127.153.252.435,1.88,3.328,1.084,2.893-.8Z" fill="#f5afa2"/>
    </g>
    <g id="Grupo_42" data-name="Grupo 42">
      <path id="Caminho_53" data-name="Caminho 53" d="M212.811,465.945c1.251-.256.849.127,1.205.514.194.21-.125-.089-.026-.114.039-.009,0,.387.029.116l-.015.189-1.44.747c-.1-.021-.448-.338-.281-.142.044.051.1.109.145.156-.213-.212-.089-.131-.046-.043.106.217.094.168.006-.024.018.037.1.285.016.028-.079-.23.008-.016-.012.076.007-.033.1-.353.015-.123l.086-.2,1.286-.543c.065.013.437.269.371.2-.088-.084-.162-.231.021.06-.035-.056-.074-.11-.108-.167-.172-.3-.076-.024-.016-.009-.092-.023,0-.363-.04-.081l.013.108c0-.166-.014-.118-.039.146a1,1,0,0,1-.927.69c-.061,0-.5-.154-.437-.116.162.094-.294-.264-.094-.052-.051-.055-.147-.288-.08-.088a2.135,2.135,0,0,0,.132.256c-.2-.38.02.1.053.207s.067.246.1.37.054.259.081.388c.072.351.021-.17.006.061,0-.017,0,.2,0,.2l.029-.2q-.066.24.068-.1c.355-.57.757.344,1.506-.391-.072.071-.141-.172.013.02l.122.164c-.061-.109-.064-.1-.01.017l.038.1a1.444,1.444,0,0,1-.053-.181c0,.038.006.367.018.109.018-.356-.009,0-.024,0s.227-.557.02-.147c.056-.11.193-.233-.054.039.161-.177-.079.045-.107.064.217-.143-.183.039-.24.06l-.114.014c.16,0,.122,0-.112-.017.1.013.22.128-.079-.036.275.151-.2-.219.021.015.178.188,0-.02-.027-.058.053.077.1.154.15.235s.088.168.129.254c-.027-.056-.091-.288-.024-.033.049.186.1.372.148.559.022.088.018.281,0-.069.006.105.019.207.022.312,0,.143-.009.283-.018.426-.019.3-.075.031.008-.021l.775-.314q.513-.609.871-.234c-.22-.035-.033-.149-.011.016,0-.035.1.475.062.229v-.067c-.032.168-.028.164.012-.014-.161.239.2-.111-.067.085a.857.857,0,0,1-.207.14c-.084.03-.348-.033-.207.029.072.032.322.156.083.019.032.018.22.112.219.133.019-.421-.3-.108-.129-.084.026,0,.22.263.062.059s.042.075.057.1c.058.093.106.192.16.287.131.228,0,0-.015-.05.03.089.062.175.087.265s.043.175.06.265l-.016-.1c-.016-.129-.021-.128-.013.005l-.005.1.023-.212c-.041.251.054-.117.108-.19a.717.717,0,0,1,.389-.263c-.272.094.34.008.064,0a.955.955,0,0,1,.478.121l.186.151c-.078-.081-.073-.067.017.041.14.069.057.1-.009-.042.007.014.156.356.064.129a1.068,1.068,0,0,1-.037-.165c-.04.036.049.39.032.1-.006-.108.042-.349-.02.1.017-.125.158-.336-.042.053.052-.1.148-.163-.1.112.152-.168-.1.077-.123.089-.369.213.035.055-.17.058l-.092.013q.253.01-.079-.02c.243.115-.012-.022-.048-.041.012.007.327.194.135.061s.1.1.108.108c.219.191-.111-.208.042.062.057.1.054.206-.007-.054.015.067.039.143.059.21-.126-.42-.047.055-.013-.177.042-.283-.188.306.063-.188-.1.187.033-.148.1-.106,0,0-.134.143-.148.159-.159.182.023.077.062-.036-.014.04-.231.115-.224.135-.03-.09.534-.079.32-.09a1.107,1.107,0,0,1,1.019.674c.027.073.089.519.063.2.005.063-.1.289-.007.065a1.143,1.143,0,0,1-.181.321c.21-.275-.221.241.019,0l-.172.081c.164-.037.129-.033-.106.01.113-.014.237.074-.112-.016-.168-.043-.2-.119-.333-.2l-.108-.146c.067.135.085.16.054.077l-.014-.041c.065.27.082.193.049-.23l.8-.278q.544-.562.941-.172c.156.11.108.149.035.016.308.561.035-.035.107.3.059.277.005-.015,0-.092s.008-.156.009-.234c.005-.291.005.107-.016.1a3.99,3.99,0,0,1,.121-.489c.055-.211-.054.045-.044.091a.679.679,0,0,1,.086-.159c.17-.25-.192.222-.059.08a1.022,1.022,0,0,1-.686.228h-.295q-.362-.18-.164-.069c-.135-.089-.242-.222-.076-.026-.423-.5-.074-.085-.082-.088.032.054.061.108.088.164l-.076-.185c.13.086.1.642.076.184.007.138-.055.292.032-.113l-.021.073a.975.975,0,0,1,.481-.613.962.962,0,0,1,.445-.112c-.119,0-.1,0,.056.016a.715.715,0,0,1,.372.116l.2.157q.228.325.135.174c-.062-.112.116.4.041.088-.049-.2-.118-.074,0,.114a.72.72,0,0,1-.018-.27,4.489,4.489,0,0,1,.014-.478c.005-.064.015-.128.018-.192.017-.323-.059.311,0,.024.032-.164.058-.329.1-.493.023-.1.056-.2.076-.3.06-.294-.157.225-.017.029.045-.064.079-.139.121-.206.023-.036.239-.323.106-.158-.149.186.1-.111.11-.117.082-.089.174-.168.257-.256.179-.189.027-.029-.029.01.093-.065.191-.117.285-.179l-.166.066c.13-.034.126-.041-.011-.021s-.14.013-.013.008c-.246-.047-.291-.045-.134,0l-.9-2.2a.888.888,0,0,1,1.113-.24.877.877,0,0,1,.4.467l-.027-.117q.033.291.014.027c0-.081,0-.161,0-.241q.024-.271-.015.1c.051-.162.057-.193.016-.094s-.028.071.042-.056a.662.662,0,0,1-.475.355c-.248.058-.36-.042-.567-.107-.079-.074-.057-.053.065.062l.114.12q.153.177-.026-.047.342.6.085-.961l.538-.539.187-.07h.8q-.231-.042.069.044a.769.769,0,0,1,.387.52l.017.185q.007-.256-.011.059c-.079.157-.092.188-.039.092s.035-.068-.067.083a.754.754,0,0,1-.955.123l-.439-1.06c0,.212.12-.371.01-.074-.039.1-.065.217-.1.322.082-.229.014-.08-.047.056-.156.35.532-.373.257-.251l2.257,1.3c0-.073,0-.146-.007-.219.02.289-.1.021.017-.021.026-.082.023-.08-.009.007a.216.216,0,0,1-.076.123c-.05.061-.311.208-.077.106l-1.155.151a1.173,1.173,0,0,1-.649-.477c0-.007-.149-.378-.088-.188.021.107.019.086-.006-.065s-.024-.173-.018-.055c.031.036-.051.335.01.04.054-.259-.047.191-.072.281-.037.131-.27.609-.066.234-.077.142-.138.292-.22.433-.039.067-.083.131-.123.2-.155.258.058-.019.053-.056.017.129-.527.394-.048.1-.132.081-.182.036.171-.058.065-.017.442-.007.193-.04l1.447,1.1c-.047-.193-.061-.162-.041.091a.619.619,0,0,1-.2.561l-2.507-1.46c-.01.068-.162.527-.061.3-.062.139-.14.272-.212.4a9.067,9.067,0,0,0-.5,1.048c-.11.282-.2.573-.294.862-.1.337.015-.145-.069.158-.1.146-.094.158,0,.038a1.467,1.467,0,0,1-.2.193l2.507.662.027.155-.205.757-.293.291-2.2-1.694a4.684,4.684,0,0,1-.3,1.038c.089-.2-.12.213-.117.208a4.213,4.213,0,0,1-.278.435,2.745,2.745,0,0,0-.636,2.506,1.516,1.516,0,0,0,2.2.9,3.125,3.125,0,0,0,.716-.614,1.546,1.546,0,0,0,0-2.121,1.512,1.512,0,0,0-2.122,0c-.038.047-.313.283-.108.145l2.2.9a1.355,1.355,0,0,1-.04.34c-.006,0,.239-.352.25-.368a5.572,5.572,0,0,0,.438-.669,6.646,6.646,0,0,0,.68-1.894,1.521,1.521,0,0,0-2.2-1.694,1.857,1.857,0,0,0-.907,2.185,1.518,1.518,0,0,0,2.507.661,5,5,0,0,0,1.237-2.316q.033-.1.069-.2-.1.234.013-.006c.1-.17.192-.348.284-.523a4.183,4.183,0,0,0,.5-1.289,1.568,1.568,0,0,0-.69-1.694,1.519,1.519,0,0,0-1.818.234,2.267,2.267,0,0,0-.535,2.268,1.574,1.574,0,0,0,1.446,1.1c.935.122,1.725-.7,2.2-1.393a5.224,5.224,0,0,0,.837-2.1,2.284,2.284,0,0,0-1.141-2.648c-1.624-.7-2.822,1.239-2.722,2.648a1.524,1.524,0,0,0,2.257,1.3,2.877,2.877,0,0,0,1.257-1.868,2.06,2.06,0,0,0-.017-1.354,2.249,2.249,0,0,0-1.458-1.147c-2.242-.661-3.792,2.345-2.279,3.948a1.885,1.885,0,0,0,3-.186,2.2,2.2,0,0,0-.616-2.654,2.466,2.466,0,0,0-2.515-.76,2.66,2.66,0,0,0-1.7,2.357,2.694,2.694,0,0,0,.977,2.6,2.148,2.148,0,0,0,3.084-.766,1.525,1.525,0,0,0-.9-2.2c-1.758-.636-3.675,1.292-4.174,2.831a5.213,5.213,0,0,0,.035,3.876,2.108,2.108,0,0,0,2.486.941,2.227,2.227,0,0,0,1.346-2.7,3.149,3.149,0,0,0-1.344-2.065,2.079,2.079,0,0,0-2.8.7c-.944,1.352-1.018,3.783.621,4.642,1.607.842,3.018-.79,2.748-2.346a2.547,2.547,0,0,0-2.4-2.171,2.582,2.582,0,0,0-2.5,1.787,2.191,2.191,0,0,0,1.294,2.781,2.67,2.67,0,0,0,2.519-.844,2.729,2.729,0,0,0,.713-2.681c-.551-1.962-3.274-3.381-4.863-1.645-1.251,1.367-.672,4.152,1.328,4.421a2.38,2.38,0,0,0,2.58-1.627,3.612,3.612,0,0,0-.4-2.673,3.564,3.564,0,0,0-2.05-1.832,2.562,2.562,0,0,0-3.154,1.165,2.794,2.794,0,0,0,.509,3.413,2.155,2.155,0,0,0,1.931.572,1.9,1.9,0,0,0,1.406-1.493,4.811,4.811,0,0,0-1.676-4.822,2.434,2.434,0,0,0-2.985.181,3.127,3.127,0,0,0-.947,2.347,2.681,2.681,0,0,0,1.635,2.485c1.422.562,2.506-.572,2.624-1.916a5.314,5.314,0,0,0-.251-1.826,3.542,3.542,0,0,0-1.384-2.192,2.1,2.1,0,0,0-2.872.7,2.741,2.741,0,0,0,.262,2.777,2.169,2.169,0,0,0,2.889.968,2.409,2.409,0,0,0,.839-2.738,3.028,3.028,0,0,0-1.956-2.048c-1.561-.391-2.5,1.183-2.245,2.546a2.11,2.11,0,0,0,2.529,1.794,1.5,1.5,0,0,0-.8-2.893Z" fill="#f5afa2"/>
    </g>
    <g id="Grupo_43" data-name="Grupo 43">
      <path id="Caminho_54" data-name="Caminho 54" d="M235.589,457.19h.479a1.541,1.541,0,0,0,1.5-1.5l-.053-.4a1.5,1.5,0,0,0-.386-.662l-.3-.235a1.491,1.491,0,0,0-.757-.2h-.479a1.14,1.14,0,0,0-.578.13,1.105,1.105,0,0,0-.482.31,1.658,1.658,0,0,0-.44,1.06l.054.4a1.5,1.5,0,0,0,.386.662l.3.235a1.5,1.5,0,0,0,.757.2h.479a1.541,1.541,0,0,0,1.5-1.5l-.053-.4a1.5,1.5,0,0,0-.386-.662l-.3-.235a1.491,1.491,0,0,0-.757-.2h-.479a1.14,1.14,0,0,0-.578.13,1.105,1.105,0,0,0-.482.31,1.658,1.658,0,0,0-.44,1.06l.054.4a1.5,1.5,0,0,0,.386.662l.3.235a1.5,1.5,0,0,0,.757.2Z" fill="#cad2c1"/>
    </g>
    <g id="Grupo_44" data-name="Grupo 44">
      <path id="Caminho_55" data-name="Caminho 55" d="M185.387,468.794h.479a1.664,1.664,0,0,0,1.06-.439,1.114,1.114,0,0,0,.31-.483,1.139,1.139,0,0,0,.13-.578l-.054-.4a1.5,1.5,0,0,0-.386-.662l-.3-.234a1.494,1.494,0,0,0-.757-.2h-.479a1.541,1.541,0,0,0-1.5,1.5l.053.4a1.511,1.511,0,0,0,.386.662l.3.234a1.491,1.491,0,0,0,.757.205h.479a1.664,1.664,0,0,0,1.06-.439,1.114,1.114,0,0,0,.31-.483,1.139,1.139,0,0,0,.13-.578l-.054-.4a1.5,1.5,0,0,0-.386-.662l-.3-.234a1.494,1.494,0,0,0-.757-.2h-.479a1.541,1.541,0,0,0-1.5,1.5l.053.4a1.511,1.511,0,0,0,.386.662l.3.234a1.491,1.491,0,0,0,.757.205Z" fill="#cad2c1"/>
    </g>
  </g>
</svg>
