<svg xmlns="http://www.w3.org/2000/svg" width="1030.662" height="1147.125" viewBox="0 0 1030.662 1147.125">
  <g id="Symbols" transform="matrix(0.766, 0.643, -0.643, 0.766, 525.699, -324.222)">
    <g id="Scene_Plants" data-name="Scene/Plants" transform="translate(-66.855 77.481)">
      <path id="Leaf-Bottom" d="M532.863,722.663c14.6,6.31,33.139-2.867,24.248-21.105-9.523-19.53-40.875-18.134-58.553-16.811,1.776,0,8.441,18.018,10.538,20.683C515.284,713.293,523.888,718.776,532.863,722.663ZM350.15,373.141C346.4,370.26,349.842,372.869,350.15,373.141ZM541.836,631.6c7.993-6.8,7.8-18.061.6-25.311-8.574-8.632-23.346-7.527-34.34-6.066-4.973.661-31.526,4.194-24.977,8.226a21.654,21.654,0,0,1-2.653-1.1q-1.045-3.159-2.173-6.289c.152-.1.281-.205.443-.305-.177.089-.3.182-.456.271a244.991,244.991,0,0,0-30.648-58.791,57.647,57.647,0,0,0,13.994,2.964c14,1.03,42.7-11.314,26.169-29.02-15.851-16.974-38.081,3.293-54.876,6.807a793.2,793.2,0,0,0-56.977-63.321,4.527,4.527,0,0,0,2.648-2.45c7.816,3.463,16.039,8.573,23.163,9.7,10.281,1.623,31.2,1.837,38.406-7.667,8.866-11.686-1.743-20.245-13.022-21.806C410.783,435.181,390,444.2,374.7,450.365a5.149,5.149,0,0,0-4.8,1.888c-.338.131-.677.26-1.006.385-20.326-20.123-41.35-39.511-62.23-58.456l.644,0a53.949,53.949,0,0,0,17.137,6.758c14.092,2.662,30.464,1.821,41.227-8.839,10.722-10.614,13.788-28.355,1.562-39-24.472-21.312-56.1,31.862-67.732,34.622-21.207-19.04-43.5-36.7-66.112-53.962a38.526,38.526,0,0,0,7.666,1.148c21.332.919,69.789-27.714,42.4-51.951-23.869-21.121-47.892,23.2-65.4,39.174-21.3-16.078-42.7-32.033-63.557-48.682,11.023,2.317,21.551,2.191,33.021-1.941,11.868-4.281,30.849-14.406,22.373-30.288-8.621-16.151-31.593-7.392-43.488-1.5-6.488,3.214-19.289,13.589-30.76,18.277-33.381-28.362-62.665-59.993-85.564-97.863A350.733,350.733,0,0,1,16.181,84.672C10.848,67.854.6,39.675,1.188,17.392-4.831,62.25,13.058,114.81,31.4,153.662c16.862,35.727,40.914,66.606,68.631,94.084-5.539,20.123-59.394,51.551-25.342,68.193,18.08,8.8,35.232-8.27,38.178-25.546,2.023-11.872-2.769-26.4-7.631-37.568q13.056,12.544,26.982,24.192c12.8,10.734,25.874,21.123,39.061,31.366-19.765,20.619-36.513,77.482-8.161,85.152,41.864,11.288,18.055-63.83,14.436-77.953a2.242,2.242,0,0,0-1.88.827c.163-1.319.358-2.731.61-4.158,25.234,19.5,50.8,38.566,75.614,58.582-2.052,1.69-5.13,7.9-7.629,11.246-5.641,7.55-11,15.409-14.77,24.094-5.948,13.723-11.243,35.393,6.8,42.336,19.618,7.567,27.463-17.04,26.843-31.441-.431-9.96-3.637-19.275-5.561-28.958-.6-3.02.38-16.827-3.456-10.709a29.134,29.134,0,0,0-.128-4.875q6.683,5.419,13.279,10.954a5.182,5.182,0,0,0-.284,1.674c0,4.3,4.4,5.729,7.367,4.314q8.716,7.455,17.239,15.159c12.013,10.91,24.208,22.14,36.336,33.627-2.382,2.273-1.234,5.188-3.447,7.585s-6.73,3.887-9.358,6.138c-6.609,5.666-11.915,13.694-15.646,21.517-6.16,12.926-13.591,39.752,6.643,44.7,20.856,5.108,29.948-20.817,30.436-36.754.1-3.087-3.657-30.665-5.946-40.63,22.447,21.352,44.588,43.565,64.784,66.286-5.744.354-21.419,12.982-24.544,16.367-7.626,8.257-19.493,26.242-4.924,34.666,12.953,7.47,27.778-5.11,32.536-16.831.782-1.93,2.968-19.625,2.8-27.5,8.371,9.646,16.385,19.369,23.878,29.153q7.495,9.755,14.128,20.062a9.391,9.391,0,0,0-2.622,2.866c-20.708,4.641-45.638,38.637-20.5,48.693,11.967,4.781,24.056-7.016,29.3-16.431,1.075-1.926,2.483-11.4,3.641-18.877a391.677,391.677,0,0,1,31.256,72.232,4.565,4.565,0,0,0-3.341,4.418c-9.841,6.315-17.6,11.55-24.1,23.042-4.037,7.138-11.133,23.334,1.994,26.491,17.083,4.107,26.3-22.14,27.016-34.868.083-1.477-.146-5.75-.407-9.662a5.675,5.675,0,0,0,1.752-.124c4.689,15.546,8.609,31.335,11.9,47.184-9.027,3.436-8.087,51.738-1.614,58.284,14.47,14.657,22.946-8.055,21.6-19.754-1.587-13.794-8.518-26.054-16.571-36.836-.863-1.141-.632-1.1-.753.563a3.313,3.313,0,0,0-.889-1.81c0-7.3.364-14.8-.335-21.23a491.535,491.535,0,0,0-9.2-54.92q-1.488-6.588-3.3-13.049a107.088,107.088,0,0,0,21.937,12.508C516.372,635.726,532.2,639.8,541.836,631.6ZM0,17.392A51.972,51.972,0,0,1,2.9,0,135.305,135.305,0,0,0,0,17.392Z" transform="translate(514.744 957.826) rotate(-142)" fill="#f6b0a3" fill-rule="evenodd" opacity="0.249"/>
      <g id="Plant-Right" transform="translate(234.511)" opacity="0.7">
        <path id="Leaf-Me-Alone_" data-name="Leaf-Me-Alone!" d="M193.929,686.848c-39.571-2.095-85.828-30.183-85.531-73.4.217-31.4,4.419-62.3,2.961-93.831-1.167-25.2-6.647-49.852-15.16-73.591-8.185-22.828-27.958-43.605-31.166-67.41-2.045-15.168,2.156-35.761,8.641-49.706,7.886-16.955,4.531-15.9-5.947-31.925-20.533-31.4-38.642-63.291-50.022-99.413C1.313,145.54-6.75,85.891,7,32.271,8.748,25.462,12.566.769,22.273.035c10.841-.822,4.375,12.85,3.325,17.376C18.9,46.288,13,71.524,14.242,101.7c4.8,116.418,79.1,200.6,122.429,303.53,2.417,5.327,7.376,17.929,10.869,26.266,5.514,13.162,9.884,37.564,18.15,47.763,15.567,19.213,3.249-17.418.561-24.446-3.4-8.89-7.17-18.356-10.784-26.213-16.49-36.392-34.984-76.169-52.021-113.687C195.343,303.9,247.209,418.435,263.838,491.9c13.7,60.529,23.082,199.664-69.908,194.946" transform="matrix(-0.995, 0.105, -0.105, -0.995, 342.783, 997.263)" fill="#bacec2" fill-rule="evenodd"/>
        <path id="Leaf-Me-Alone_2" data-name="Leaf-Me-Alone!" d="M404.092,78.351C337.939,83.6,295.469,127.252,275.7,188.308c-10.655,32.9-11.876,66.7-17.8,100.518-8.907,50.872-28.072,89.425-65.527,125.668-11.6,11.225-20.15,22.75-26.227,35.08-12.064,12.311-22.566,26.242-30.281,43.274-9.856,21.752-12.644,47.849-1.265,69.535,3.059,5.83,10.692,17.532,18.6,22.85-29.615,63.073-45.9,132.152-44.064,201.143,1.109,41.646,3.142,83.31,5.514,124.9.639,11.169,4.276,29.611,9.739,10.881,5-17.132-1.27-44.028-1.85-61.926C119.72,773.042,117.306,693.763,153.2,612.3q5.646-12.807,11.911-25.409a8.465,8.465,0,0,0,.7-.478c.158.122.3.254.461.373.266-.473.629-1.037,1.053-1.667a22.47,22.47,0,0,0,3.223-4.519c3.184-4.412,6.787-9.595,6.806-12.433,0-.022-.012-.056-.012-.078,22.219-36.271,47.669-70.543,73.664-104.144-.2.244,28.2-38.413,23.806-17.035-2.116,10.3-23,29.921-31.434,40.834-18.658,24.277-40.568,55.038-58.775,84.783-2.45,1.408-5.911,8.321-8.415,13.47-1.382,2.608-2.672,5.239-3.939,7.53,64.513,21.315,114.7-21.62,148.918-71.558.041-.059.078-.12.117-.178,10.414-13.8,21.081-27.5,34.408-38.408,22.234-18.2,46.045-21.412,72.26-30.37,71.49-24.426,101.885-117.077,111.539-185.823C550.38,189.632,497.1,70.7,404.092,78.351" transform="translate(204.421 146.969)" fill="#cedcd4" fill-rule="evenodd"/>
        <path id="Leaf-Me-Alone_3" data-name="Leaf-Me-Alone!" d="M284.315,6.614c-77.07,60.527-123.194,153.021-161.738,240.651C79.528,345.14,46.01,445.957,30.39,551.811c-10.261,69.547-22,139.33-27.708,209.434A747.2,747.2,0,0,0,.118,836.206c.04,2.053,1.131,57.83,11.3,46.3,5.781-6.558-1.024-57.845-.907-66.212.666-47.122,5.864-93.955,12.7-140.551C34.47,599.022,42.942,522.313,61.476,446.9c2.765-11.259,5.37-23.127,9.653-33.92,4.55-11.475.152-6.8,10.2-10.189,9.76-3.291,20.935-1.054,31.2-5.46,40.721-17.48,68.13-73.228,88.459-109.476,23.251-41.452,40.208-86.755,54.989-131.738A974.085,974.085,0,0,0,283.212,55.984c2.3-10.715,3.934-22.027,7.557-32.371.976-2.79,4.565-7.465,4.819-10.022.535-5.412-2.268-9.033-1.9-13.591q-4.756,3.206-9.375,6.614" transform="translate(195.369 41.147) rotate(-8)" fill="#d2dacc" fill-rule="evenodd"/>
        <path id="Leaf-Me-Alone_4" data-name="Leaf-Me-Alone!" d="M124.181,450.184H113c.776-14.028,1.8-28.031,4.146-41.9,8.969-53.053,37.014-130.973,98.523-139.584,2.269-.321,10.616-.375,20.728.218a37.374,37.374,0,0,1,15.816-4.669c52.369-3.861,110.853,38.388,136.114,82.354,20.364,35.448,16.933,82,4.355,119.657-8.423,25.213-26.805,61.161-57.461,61.512-38.354.438-40.2-46.965-40.945-74.677-.986-36.842-5.641-68.937-34.672-94.05-6.766-5.85-14.162-11-21-16.766-10.7-9.03-22.528-18.275-23.907-33.214-1.9-20.61,9.731-24.319,27.494-20.49,3.028.652,33.53,14.339,29.014,3.52-1.379-3.3-6.415-5.924-12.771-7.886-16.448-1.788-36.063-3.863-41.7-2.624-60.858,13.351-84.552,97.651-90.845,151.21C125.209,438.574,124.66,444.375,124.181,450.184Z" transform="translate(212.016 500.107)" fill="#d2dacc" fill-rule="evenodd"/>
      </g>
    </g>
  </g>
</svg>